<svg width="201" height="125" fill="none" xmlns="http://www.w3.org/2000/svg"><g clip-path="url(#a)"><path d="M52.77 76.098c21.014 0 38.049-17.035 38.049-38.049S73.784 0 52.769 0C31.757 0 14.722 17.035 14.722 38.049S31.756 76.098 52.77 76.098Z" fill="#F2F2F2"/><path d="M.5 9.136c0 13.844 8.685 25.046 19.418 25.046L.5 9.136Z" fill="#2F2E41"/><path d="M19.918 34.182c0-14 9.691-25.328 21.669-25.328l-21.67 25.328Z" fill="#2C37F1"/><path d="M7.535 10.39c0 13.15 5.539 23.792 12.383 23.792L7.535 10.39Z" fill="#2C37F1"/><path d="M19.918 34.182c0-17.888 11.202-32.363 25.046-32.363L19.918 34.182Z" fill="#2F2E41"/><path d="M15.832 34.358s2.754-.085 3.584-.675c.83-.591 4.236-1.297 4.442-.35.206.948 4.138 4.715 1.03 4.74-3.11.025-7.224-.485-8.053-.99-.828-.504-1.003-2.725-1.003-2.725Z" fill="#A8A8A8"/><path opacity=".2" d="M24.943 37.743c-3.109.025-7.224-.485-8.052-.99-.631-.383-.882-1.762-.966-2.398l-.092.003s.174 2.221 1.002 2.726c.829.504 4.944 1.014 8.052.988.898-.007 1.208-.326 1.19-.799-.124.286-.466.464-1.134.47Z" fill="#000"/><path d="M35.978 80.374c18.449 0 33.405-2.034 33.405-4.544s-14.956-4.544-33.405-4.544S2.574 73.32 2.574 75.83s14.955 4.544 33.404 4.544Z" fill="#3F3D56"/><path opacity=".1" d="M35.978 79.645c15.49 0 28.046-1.708 28.046-3.815s-12.557-3.815-28.046-3.815c-15.489 0-28.045 1.708-28.045 3.815s12.556 3.815 28.045 3.815Z" fill="#000"/><path d="M149.947 124.865c27.92 0 50.553-3.079 50.553-6.877 0-3.799-22.633-6.878-50.553-6.878-27.92 0-50.554 3.079-50.554 6.878 0 3.798 22.634 6.877 50.554 6.877ZM55.985 119.439c16.772 0 30.368-1.849 30.368-4.131s-13.596-4.131-30.368-4.131c-16.771 0-30.367 1.849-30.367 4.131s13.596 4.131 30.367 4.131Z" fill="#3F3D56"/><path d="M83.138 111.825c16.077 4.108 46.98-5.359 50.374-16.077M55.807 46.266s23.222-6.43 24.651 14.29c1.43 20.722-19.114 26.617-3.037 30.726M33.37 95.977s6.98-1.933 7.41 4.295c.43 6.228-5.745 8-.913 9.235" stroke="#2F2E41" stroke-width="2" stroke-miterlimit="10"/><path d="m139.603 100.614-1.407 8.984s-6.928 3.68-2.057 3.789c4.871.108 27.819 0 27.819 0s4.438 0-2.598-3.897l-1.407-9.418-20.35.542Z" fill="#2F2E41"/><path opacity=".1" d="M135.159 113.289c1.107-.984 3.037-2.01 3.037-2.01l1.407-8.984 20.35.019 1.407 8.857c1.641.909 2.658 1.605 3.252 2.14.904-.207 1.891-.973-3.252-3.821l-1.407-9.418-20.35.542-1.407 8.984s-5.821 3.093-3.037 3.691Z" fill="#000"/><path d="M192.288 37.993h-85.237a3.223 3.223 0 0 0-3.223 3.224v57.418a3.224 3.224 0 0 0 3.223 3.224h85.237a3.224 3.224 0 0 0 3.224-3.224V41.217a3.224 3.224 0 0 0-3.224-3.224Z" fill="#2F2E41"/><path d="M192.427 41.403h-85.514v47.845h85.514V41.403Z" fill="#F5F5FC"/><path d="M149.67 40.429a.541.541 0 1 0 0-1.082.541.541 0 0 0 0 1.082Z" fill="#F2F2F2"/><path d="M195.512 93.036v5.599a3.223 3.223 0 0 1-3.224 3.223h-85.237a3.212 3.212 0 0 1-2.978-1.99 3.223 3.223 0 0 1-.245-1.233v-5.599h91.684ZM173.592 119.232v1.083h-58.236v-.867l.08-.216 1.435-3.897h55.53l1.191 3.897ZM196.003 118.172c-.106.454-.506.932-1.411 1.385-3.247 1.623-9.851-.433-9.851-.433s-5.087-.866-5.087-3.139c.143-.098.292-.187.446-.266 1.365-.722 5.892-2.504 13.919.076a3.342 3.342 0 0 1 1.525 1c.326.38.581.863.459 1.377Z" fill="#2F2E41"/><path opacity=".1" d="M196.003 118.172c-3.974 1.523-7.517 1.637-11.153-.888-1.834-1.273-3.5-1.588-4.75-1.565 1.365-.722 5.892-2.504 13.919.076a3.342 3.342 0 0 1 1.525 1c.326.38.581.863.459 1.377Z" fill="#000"/><path d="M191.02 117.284c.777 0 1.407-.194 1.407-.433 0-.24-.63-.433-1.407-.433s-1.407.193-1.407.433c0 .239.63.433 1.407.433ZM149.67 99.531a2.057 2.057 0 1 0 0-4.114 2.057 2.057 0 0 0 0 4.114Z" fill="#F2F2F2"/><path opacity=".1" d="M173.592 119.232v1.082h-58.236v-.866l.08-.216h58.156Z" fill="#000"/><path d="M57.057 28.403H19.901v43.23h37.156v-43.23Z" fill="#2F2E41"/><path d="M60.808 24.116H16.15v15.362h44.658V24.115ZM60.808 42.336H16.15V57.7h44.658V42.336ZM60.808 60.557H16.15v15.362h44.658V60.557Z" fill="#3F3D56"/><path opacity=".4" d="M51.877 26.795h-2.858v2.858h2.858v-2.858Z" fill="#2C37F1"/><path opacity=".8" d="M55.985 26.795h-2.858v2.858h2.858v-2.858Z" fill="#2C37F1"/><path d="M60.094 26.795h-2.858v2.858h2.858v-2.858Z" fill="#2C37F1"/><path opacity=".4" d="M51.877 44.837h-2.858v2.858h2.858v-2.858Z" fill="#2C37F1"/><path opacity=".8" d="M55.985 44.837h-2.858v2.858h2.858v-2.858Z" fill="#2C37F1"/><path d="M60.094 44.837h-2.858v2.858h2.858v-2.858Z" fill="#2C37F1"/><path opacity=".4" d="M51.877 62.88h-2.858v2.857h2.858V62.88Z" fill="#2C37F1"/><path opacity=".8" d="M55.985 62.88h-2.858v2.857h2.858V62.88Z" fill="#2C37F1"/><path d="M60.094 62.88h-2.858v2.857h2.858V62.88Z" fill="#2C37F1"/><path d="M57.057 110.217c7.794 0 14.112-6.318 14.112-14.112 0-7.794-6.318-14.112-14.112-14.112-7.794 0-14.112 6.318-14.112 14.112 0 7.794 6.318 14.112 14.112 14.112Z" fill="#2F2E41"/><path d="M54.913 107.18h-4.287v7.682h4.287v-7.682ZM63.488 107.18H59.2v7.682h4.287v-7.682Z" fill="#2F2E41"/><path d="M54.199 116.291c1.973 0 3.573-.6 3.573-1.34 0-.74-1.6-1.34-3.573-1.34-1.973 0-3.573.6-3.573 1.34 0 .74 1.6 1.34 3.573 1.34ZM62.773 116.112c1.973 0 3.573-.6 3.573-1.34 0-.74-1.6-1.34-3.573-1.34-1.973 0-3.572.6-3.572 1.34 0 .74 1.6 1.34 3.572 1.34Z" fill="#2F2E41"/><path d="M57.414 97.355a4.823 4.823 0 1 0 0-9.646 4.823 4.823 0 0 0 0 9.646Z" fill="#fff"/><path d="M57.414 94.14a1.608 1.608 0 1 0 0-3.215 1.608 1.608 0 0 0 0 3.215Z" fill="#3F3D56"/><path d="M43.368 82.981c-1.14-5.103 2.503-10.26 8.136-11.517 5.632-1.258 11.122 1.86 12.262 6.963 1.14 5.103-2.594 6.985-8.227 8.242-5.632 1.258-11.032 1.415-12.171-3.688Z" fill="#2C37F1"/><path d="M70.293 93.29c3.582-1.533 6.096-3.688 5.615-4.813-.481-1.124-3.776-.793-7.358.74-3.583 1.534-6.097 3.689-5.616 4.813.482 1.125 3.776.794 7.359-.74ZM43.855 102.758c3.583-1.533 6.097-3.688 5.615-4.813-.481-1.125-3.776-.793-7.358.74-3.583 1.533-6.097 3.688-5.616 4.813.482 1.125 3.776.793 7.359-.74Z" fill="#2F2E41"/><path d="M65.274 100.214c0 1.381-3.556 4.108-7.502 4.108-3.947 0-7.682-2.549-7.682-3.93 0-1.381 3.735-1.072 7.682-1.072 3.946 0 7.502-.488 7.502.894Z" fill="#fff"/><path d="M150 52.667c-7.36 0-13.333 5.973-13.333 13.333S142.64 79.333 150 79.333 163.333 73.36 163.333 66 157.36 52.667 150 52.667Zm1.333 20h-2.666V70h2.666v2.667Zm0-5.334h-2.666v-8h2.666v8Z" fill="#F8343F"/></g><defs><clipPath id="a"><path fill="#fff" transform="translate(.5)" d="M0 0h200v124.865H0z"/></clipPath></defs></svg>
