<svg width="201" height="109" fill="none" xmlns="http://www.w3.org/2000/svg"><g clip-path="url(#a)"><path d="M101.142 108.995c54.231 0 98.195-2.917 98.195-6.515s-43.964-6.515-98.195-6.515c-54.232 0-98.195 2.917-98.195 6.515s43.963 6.515 98.195 6.515Z" fill="#F2F2F2"/><path d="M97.378 31.157c-15.999 0-27.485 10.287-27.485 34.29 0 27.203 11.486 34.404 27.485 34.404 15.999 0 28.17-7.887 28.17-34.404 0-28.346-12.171-34.29-28.17-34.29Zm.105 59.664c-11.08 0-16.87-6.515-16.87-25.356 0-16.625 6.026-25.392 17.107-25.392s17.108 5.758 17.108 25.392c-.001 18.366-6.264 25.356-17.345 25.356Z" fill="#2F2E41"/><path d="M60.313 80.877h-6.615V61.356a3.913 3.913 0 0 0-1.143-2.765 3.897 3.897 0 0 0-2.758-1.145h-1.55a3.893 3.893 0 0 0-2.758 1.145 3.911 3.911 0 0 0-1.143 2.765v19.521H25.688a2.223 2.223 0 0 1-1.907-1.08 2.236 2.236 0 0 1-.062-2.194l19.747-37.458a3.916 3.916 0 0 0-1.783-5.362l-1.166-.551a3.893 3.893 0 0 0-5.106 1.692L11.327 81.078a5.311 5.311 0 0 0 .924 6.248 5.288 5.288 0 0 0 3.74 1.552h28.355v12.344a4.698 4.698 0 0 0 1.37 3.314 4.686 4.686 0 0 0 3.306 1.373 4.677 4.677 0 0 0 4.676-4.687V88.878h6.615a3.987 3.987 0 0 0 2.822-1.171 4.005 4.005 0 0 0 0-5.658 3.987 3.987 0 0 0-2.822-1.172ZM182.8 80.877h-6.615V61.356a3.915 3.915 0 0 0-1.142-2.765 3.898 3.898 0 0 0-2.759-1.145h-1.55a3.898 3.898 0 0 0-3.604 2.414 3.918 3.918 0 0 0-.297 1.496v19.521h-18.658a2.22 2.22 0 0 1-1.907-1.08 2.24 2.24 0 0 1-.062-2.194l19.748-37.458a3.914 3.914 0 0 0 .251-3.063 3.911 3.911 0 0 0-2.035-2.299l-1.166-.551a3.892 3.892 0 0 0-2.89-.177 3.906 3.906 0 0 0-2.216 1.869l-24.084 45.154a5.313 5.313 0 0 0 .925 6.248 5.283 5.283 0 0 0 3.74 1.552h28.354v12.344c0 1.243.493 2.435 1.37 3.314a4.67 4.67 0 0 0 6.613 0 4.691 4.691 0 0 0 1.369-3.314V88.878h6.615a3.985 3.985 0 0 0 2.822-1.171 4.004 4.004 0 0 0 0-5.658 3.985 3.985 0 0 0-2.822-1.172Z" fill="#2C37F1"/><path d="M62.138 78.591h-6.615V59.07a3.918 3.918 0 0 0-1.143-2.765 3.899 3.899 0 0 0-2.758-1.145h-1.55a3.897 3.897 0 0 0-2.759 1.145 3.914 3.914 0 0 0-1.142 2.765V78.59H27.513a2.224 2.224 0 0 1-1.908-1.08 2.236 2.236 0 0 1-.061-2.194L45.29 37.859a3.918 3.918 0 0 0-.53-4.42 3.902 3.902 0 0 0-1.253-.941l-1.166-.552a3.893 3.893 0 0 0-5.106 1.692L13.151 78.792a5.307 5.307 0 0 0 .925 6.248 5.284 5.284 0 0 0 3.74 1.552h28.355v12.344a4.7 4.7 0 0 0 1.37 3.314 4.686 4.686 0 0 0 3.306 1.373 4.67 4.67 0 0 0 3.306-1.373 4.692 4.692 0 0 0 1.37-3.314V86.592h6.614a3.985 3.985 0 0 0 3.688-2.47 4.008 4.008 0 0 0-.865-4.36 3.993 3.993 0 0 0-2.823-1.17ZM186.221 78.591h-6.614V59.07a3.913 3.913 0 0 0-1.143-2.765 3.898 3.898 0 0 0-2.758-1.145h-1.55a3.89 3.89 0 0 0-2.759 1.145 3.913 3.913 0 0 0-1.142 2.765V78.59h-18.658a2.227 2.227 0 0 1-2.226-2.169 2.226 2.226 0 0 1 .257-1.105l19.747-37.458c.246-.467.395-.98.439-1.506a3.914 3.914 0 0 0-2.222-3.856l-1.166-.551a3.894 3.894 0 0 0-5.106 1.692l-24.085 45.154a5.312 5.312 0 0 0 .925 6.248 5.283 5.283 0 0 0 3.74 1.552h28.355v12.344c0 1.243.492 2.435 1.369 3.314a4.67 4.67 0 0 0 6.613 0 4.692 4.692 0 0 0 1.37-3.314V86.592h6.614a3.983 3.983 0 0 0 2.823-1.171 4.001 4.001 0 0 0 1.169-2.829 4.007 4.007 0 0 0-1.169-2.829 3.989 3.989 0 0 0-2.823-1.172ZM101.028 29.1c-15.999 0-27.486 10.287-27.486 34.29 0 27.203 11.487 34.403 27.486 34.403 15.998 0 28.17-7.886 28.17-34.403 0-28.346-12.172-34.29-28.17-34.29Zm.105 59.664c-11.081 0-16.87-6.515-16.87-25.357 0-16.625 6.026-25.392 17.107-25.392s17.107 5.76 17.107 25.392c0 18.367-6.263 25.357-17.344 25.357Z" stroke="#3F3D56" stroke-miterlimit="10"/><path d="M88.204 5.812a2.404 2.404 0 0 0 2.401-2.407A2.404 2.404 0 0 0 88.204.998a2.404 2.404 0 0 0-2.402 2.407 2.404 2.404 0 0 0 2.402 2.407Z" fill="#2F2E41"/><path d="M94.061 17.494c3.72 0 6.736-3.916 6.736-8.747 0-4.83-3.015-8.747-6.736-8.747-3.72 0-6.736 3.916-6.736 8.747 0 4.83 3.016 8.747 6.736 8.747Z" fill="#2F2E41"/><path opacity=".1" d="M94.061 14.852c-3.374 0-6.169-3.222-6.66-7.426-.05.438-.076.88-.076 1.32 0 4.832 3.016 8.748 6.736 8.748 3.72 0 6.736-3.916 6.736-8.747.001-.442-.025-.883-.076-1.321-.49 4.204-3.285 7.426-6.66 7.426Z" fill="#000"/><path d="M107.769 34.362c-.145.596-.769 1.073-1.46 1.407-1.452.7-3.243.91-4.981.98a8.392 8.392 0 0 1-1.33-.025 3.819 3.819 0 0 1-2.28-1.05.313.313 0 0 1 .008-.53c.925-1.02 2.468-1.644 4.024-2.093 1.179-.341 3.235-1.224 4.521-1.105 1.246.115 1.68 1.664 1.498 2.416Z" fill="#3F3D56"/><path opacity=".1" d="M107.769 34.362c-.145.596-.769 1.073-1.46 1.407-1.452.7-3.243.91-4.981.98a8.392 8.392 0 0 1-1.33-.025 3.819 3.819 0 0 1-2.28-1.05.313.313 0 0 1 .008-.53c.925-1.02 2.468-1.644 4.024-2.093 1.179-.341 3.235-1.224 4.521-1.105 1.246.115 1.68 1.664 1.498 2.416Z" fill="#000"/><path d="M89.303 29.91a3.696 3.696 0 0 0-.224 2.812 4.914 4.914 0 0 0 1.644 2.332c1.88 1.51 4.465 1.717 6.874 1.696a52.858 52.858 0 0 0 6.311-.434 7.529 7.529 0 0 0 2.048-.476c.786-.34 1.477-.966 1.757-1.777.279-.812.081-1.805-.584-2.346-.584-.476-1.389-.541-2.14-.586l-4.298-.26c.425-.43.99-.674 1.507-.987.686-.415 1.142-1.112 1.641-1.741a24.058 24.058 0 0 1 2.501-2.578c.14.804.648 1.465 1.245 2.02.598.554 1.286 1.001 1.907 1.53 1.504 1.279 2.587 3.015 4.168 4.197a8.152 8.152 0 0 0 2.988-1.495l-.615-1.116a.737.737 0 0 0-.231-.29c-.174-.107-.399-.051-.601-.082-.54-.08-.776-.706-.987-1.21-.582-1.385-1.696-2.459-2.647-3.62a18.305 18.305 0 0 1-1.861-2.747c-.319-.578-.612-1.18-1.046-1.68-.433-.498-1.041-.89-1.701-.891-.583-.001-1.121.295-1.622.594a42.904 42.904 0 0 0-4.399 3.003c-.734.571-1.463 1.175-2.325 1.525-.362.148-.744.248-1.092.428-.61.314-1.072.846-1.57 1.318-1.775 1.683-4.206 2.774-6.648 2.86Z" fill="#3F3D56"/><path d="M98.29 17.928a4.444 4.444 0 0 1-.324 1.499 1.873 1.873 0 0 1-1.073 1.04 2.3 2.3 0 0 1-1.047.034 2.023 2.023 0 0 1-.853-.292c-.403-.277-.604-.773-.677-1.258-.073-.484-.04-.979-.087-1.467a8.02 8.02 0 0 0-.224-1.167l-.096-.38a18.036 18.036 0 0 1-.09-.381 8.222 8.222 0 0 1-.07-.36 5.405 5.405 0 0 1-.043-.306 3.44 3.44 0 0 0-.15-.897 2.723 2.723 0 0 0-.314-.533 3.952 3.952 0 0 1-.153-.232 1.1 1.1 0 0 1-.18-.699.61.61 0 0 1 .043-.154.336.336 0 0 0 .229-.214.641.641 0 0 0-.028-.332 2.12 2.12 0 0 0-.178-.427c-.05-.089-.216-.25-.218-.352-.002-.205.399-.37.56-.452a3.12 3.12 0 0 1 1.601-.325c.355.024.739.133.934.431.176.268.153.616.228.928a.274.274 0 0 0 .055.123.248.248 0 0 0 .138.064c.087.017.176.02.264.01a.921.921 0 0 0 .448-.174 2.382 2.382 0 0 1 .228-.049c.294.928.332 1.923.572 2.869.119.47.29.934.313 1.418.002.02.003.043.003.064.004.156-.009.313-.002.468.002.07.01.139.023.207.026.11.06.22.098.326l.002.005a1.609 1.609 0 0 1 .047.178v.002c.044.26.05.524.02.785Z" fill="#FBBEBE"/><path d="M94.178 11.858a3.46 3.46 0 0 0 3.456-3.463 3.46 3.46 0 0 0-3.456-3.464 3.46 3.46 0 0 0-3.456 3.464 3.46 3.46 0 0 0 3.457 3.463ZM116.12 27.265a5.701 5.701 0 0 0-.975-2.63l.269 1.601a.596.596 0 0 1-.626-.193 1.927 1.927 0 0 1-.329-.61c-.393-.978-.906-1.901-1.528-2.75-2.2-.184-4.375-1.098-6.31-2.163-1.935-1.065-3.746-2.342-5.656-3.452a8.11 8.11 0 0 0-1.032-.528c-.598-.24-1.268-.365-1.835-.647a2.335 2.335 0 0 1-.649-.463 3.799 3.799 0 0 1-.662-1.11c-.304-.674-.413-1.487-.716-2.161.14-.131.296-.242.466-.33l.075-.037a2.22 2.22 0 0 1 1.623-.105c.482.163.888.49 1.293.797.657.465 1.288.966 1.889 1.502.333.32.638.673.997.964.299.23.613.44.941.625l5.83 3.48a64.13 64.13 0 0 1 1.959 1.2c.977.632 1.919 1.317 2.86 2l1.664 1.21c.182.116.341.264.471.436.115.196.187.415.21.64a5.88 5.88 0 0 1-.229 2.724Z" fill="#FBBEBE"/><path d="M99.146 20.533c-.233 1.048-1.29 1.681-1.842 2.602-.686 1.142-.407 2.47-.149 3.778l-1.413 1.22c-.26.225-.52.45-.8.647-.408.274-.835.52-1.277.735l-1.251.645a5.973 5.973 0 0 1-1.225.52c-.822.212-1.695.064-2.508-.181a1.129 1.129 0 0 1-.274-.112.446.446 0 0 1-.13-.118.731.731 0 0 1-.082-.474c.082-1.371.417-2.714.75-4.046.178-.8.417-1.584.716-2.347.293-.653.63-1.286 1.008-1.893a12.76 12.76 0 0 1 1.476-2.149c.275-.255.506-.553.684-.884.208-.475.128-1.02.17-1.538.033-.39.136-.769.304-1.12v-.001c.09-.19.2-.37.325-.538a395.603 395.603 0 0 0 .424.99l.41.955c.147.4.356.774.62 1.109a1.21 1.21 0 0 0 2.07-.16c.198-.35.34-.728.424-1.121.116-.48.132-.977.047-1.462-.142-.935-.538-1.89-.826-2.757a2.794 2.794 0 0 1-.201-.91c0-.034.004-.07.01-.104l.006-.027a2.232 2.232 0 0 1 .593-.184l.761 4.128.019.098c.036.197.073.394.114.59.037.18.077.357.121.534l.002.005.047.178.001.002c.045.162.095.323.152.482.345.955.945 1.916.724 2.908Z" fill="#2C37F1"/><path d="M113.172 35.259c-.011.202.028.403.113.586.216.396.735.486 1.184.523 2.624.216 5.263.136 7.868-.24a.907.907 0 0 0 .401-.124c.37-.26.142-.895-.263-1.098-.404-.203-.884-.154-1.328-.242a4.174 4.174 0 0 1-1.243-.54 63.123 63.123 0 0 1-2.661-1.621c-.52-.335-1.134-.692-1.72-.494-1.587.538-2.362 1.534-2.351 3.25Z" fill="#3F3D56"/><path d="M93.834 15.483a14.454 14.454 0 0 1-.3 1.305c-.281 1.02-.658 2.021-1.031 3.009l-3.01 7.943c-.252.667-.505 1.334-.792 1.988l-.294.659c-.353.794-.691 1.614-.804 2.46a5.134 5.134 0 0 0-.035 1.686c.112.554.448 1.096.973 1.3.257.1.624.235.554.502-.038.147-.205.219-.354.243a1.358 1.358 0 0 1-1.11-.32c-.281-.25-.497-.638-.87-.68-.258-.028-.496.127-.733.236-.965.442-2.09.133-3.104-.181.08-.412.492-.683.902-.765.41-.083.833-.024 1.25-.035a.653.653 0 0 0 .38-.099.691.691 0 0 0 .206-.35c.269-.8.469-1.62.598-2.453.134-.87.19-1.755.383-2.615.15-.67.38-1.32.578-1.98a41.99 41.99 0 0 0 .942-4.118c.124-.577.212-1.16.265-1.748.034-.487.018-.976.065-1.462.078-.632.21-1.255.393-1.865l.537-1.994c.265-.983.55-2.005 1.222-2.77a2.6 2.6 0 0 1 1.867-.893c.133 0 .266.014.397.043.021.005.043.01.065.017.141.037.278.093.404.168.208-.133.313-.086.45.117.121.216.178.462.165.709a9.806 9.806 0 0 1-.16 1.943Z" fill="#FBBEBE"/><path d="m94.061 16.261-.009.009-.047.047-.47.472-.232-.972-.791-3.33c.133 0 .266.014.397.042a.616.616 0 0 1 .027-.112l.037.129.269.914.508 1.737.083.286.228.778Z" fill="#2C37F1"/><path d="M97.05 5.635a2.352 2.352 0 0 1-2.345 2.35h-2.81a2.34 2.34 0 0 1-1.655-.69 2.351 2.351 0 0 1 1.655-4.008h2.81a2.359 2.359 0 0 1 2.345 2.348ZM99.684 5.812a2.404 2.404 0 0 0 2.402-2.407A2.404 2.404 0 0 0 99.685.998a2.404 2.404 0 0 0-2.402 2.407 2.404 2.404 0 0 0 2.401 2.407Z" fill="#2F2E41"/><path opacity=".1" d="M99.626.998 99.538 1a2.407 2.407 0 0 1 0 4.81l.088.002c.637 0 1.248-.254 1.698-.705a2.412 2.412 0 0 0 0-3.404 2.398 2.398 0 0 0-1.698-.705ZM88.204.998l.088.002a2.399 2.399 0 0 0-1.641.734 2.41 2.41 0 0 0 1.64 4.075l-.087.003a2.399 2.399 0 0 1-1.697-.706A2.41 2.41 0 0 1 88.204.998ZM96.108 7.514c-.405.305-.897.47-1.403.47h-2.81c-.507 0-.999-.165-1.403-.47h5.616Z" fill="#000"/><path d="M114.255 24.954s.605 1.748 1.159 1.283l-.441-2.286-.718 1.003Z" fill="#FBBEBE"/><path d="M187.93 78.272a3.86 3.86 0 0 0 3.435-.394 3.874 3.874 0 0 0 1.227-1.286 3.883 3.883 0 0 0-2.371-5.729 3.866 3.866 0 0 0-1.776-.038l.097 1.998-.943-1.712a3.867 3.867 0 0 0-1.989 2.187 3.891 3.891 0 0 0 .393 3.439 3.87 3.87 0 0 0 1.927 1.535Z" fill="#57B894"/><path d="M192.598 101.451c-.333-1.7 1.11-3.207 2.535-4.186 1.426-.98 3.091-1.942 3.578-3.604.699-2.389-1.383-4.576-3.004-6.463a23.392 23.392 0 0 1-3.076-4.581c-.337-.66-.647-1.348-.736-2.083-.127-1.06.212-2.113.554-3.123 1.139-3.364 2.357-6.7 3.654-10.009M188.089 77.757a3.868 3.868 0 0 0 4.663-1.68 3.899 3.899 0 0 0 .239-3.457 3.883 3.883 0 0 0-2.61-2.272 3.866 3.866 0 0 0-1.776-.038l.097 1.999-.943-1.713a3.864 3.864 0 0 0-1.989 2.187 3.884 3.884 0 0 0 2.319 4.974Z" stroke="#3F3D56" stroke-miterlimit="10"/><path d="M192.124 66.712a3.879 3.879 0 0 1 2.789-2.462l.319 1.9.591-1.996a3.868 3.868 0 0 1 2.273.781 3.886 3.886 0 0 1-.13 6.297 3.87 3.87 0 0 1-5.92-2.113 3.891 3.891 0 0 1 .078-2.407Z" fill="#57B894"/><path d="M192.337 66.026a3.88 3.88 0 0 1 2.788-2.462l.319 1.9.592-1.996a3.869 3.869 0 0 1 3.649 2.755 3.885 3.885 0 0 1-1.507 4.323 3.866 3.866 0 0 1-4.567-.123 3.883 3.883 0 0 1-1.274-4.397Z" stroke="#3F3D56" stroke-miterlimit="10"/><path d="M195.027 87.237a3.866 3.866 0 0 0 4.789-1.92 3.883 3.883 0 0 0-1.36-4.987l-.455 1.533-.322-1.922a3.863 3.863 0 0 0-4.192 1.025 3.9 3.9 0 0 0-1.011 2.794 3.888 3.888 0 0 0 1.257 2.693c.376.344.815.61 1.294.784Z" fill="#57B894"/><path d="M195.211 86.542a3.866 3.866 0 0 0 2.76-.045 3.88 3.88 0 0 0 2.298-4.629 3.883 3.883 0 0 0-1.629-2.233l-.454 1.533-.323-1.922a3.863 3.863 0 0 0-4.191 1.025 3.885 3.885 0 0 0 1.539 6.27Z" stroke="#3F3D56" stroke-miterlimit="10"/><path d="M190.994 93.685a3.876 3.876 0 0 0 3.683 3.207 3.877 3.877 0 0 0 3.89-2.951 3.882 3.882 0 0 0-2.079-4.424 3.863 3.863 0 0 0-4.748 1.127l1.726 2.604-2.358-1.382a3.85 3.85 0 0 0-.114 1.819Z" fill="#57B894"/><path d="M191.153 93.17a3.87 3.87 0 0 0 7.574.256 3.894 3.894 0 0 0-.257-2.582 3.877 3.877 0 0 0-1.823-1.842 3.863 3.863 0 0 0-4.747 1.128l1.726 2.603-2.359-1.382a3.85 3.85 0 0 0-.114 1.82Z" stroke="#3F3D56" stroke-miterlimit="10"/><path d="M2.177 87.73a2.541 2.541 0 0 0 3.063-1.104 2.556 2.556 0 0 0-.525-3.22 2.544 2.544 0 0 0-2.2-.568l.064 1.313-.62-1.126a2.54 2.54 0 0 0-1.453 2.127 2.555 2.555 0 0 0 1.67 2.578Z" fill="#57B894"/><path d="M5.244 102.959c-.219-1.117.73-2.107 1.666-2.75.936-.644 2.03-1.276 2.35-2.368.46-1.57-.909-3.006-1.973-4.246-.79-.92-1.469-1.93-2.021-3.01a4.15 4.15 0 0 1-.484-1.369c-.084-.695.14-1.388.364-2.051a148.54 148.54 0 0 1 2.4-6.576" stroke="#3F3D56" stroke-miterlimit="10"/><path d="M2.282 87.392a2.54 2.54 0 0 0 3.064-1.104 2.555 2.555 0 0 0-1.558-3.764A2.541 2.541 0 0 0 2.62 82.5l.064 1.314-.62-1.126a2.54 2.54 0 0 0-1.453 2.127 2.555 2.555 0 0 0 1.67 2.578Z" stroke="#3F3D56" stroke-miterlimit="10"/><path d="M4.933 80.135a2.549 2.549 0 0 1 1.832-1.618l.21 1.249.388-1.311a2.542 2.542 0 0 1 2.398 1.81 2.556 2.556 0 0 1-.99 2.84 2.54 2.54 0 0 1-3.89-1.388 2.556 2.556 0 0 1 .052-1.582Z" fill="#57B894"/><path d="M5.073 79.684a2.548 2.548 0 0 1 1.832-1.617l.21 1.248.388-1.31A2.542 2.542 0 0 1 9.9 79.813a2.556 2.556 0 0 1-.99 2.84 2.542 2.542 0 0 1-3.89-1.388 2.556 2.556 0 0 1 .052-1.582Z" stroke="#3F3D56" stroke-miterlimit="10"/><path d="M6.84 93.62a2.54 2.54 0 0 0 3.146-1.261 2.556 2.556 0 0 0-.893-3.277l-.299 1.008-.212-1.263a2.54 2.54 0 0 0-3.269 1.525A2.556 2.556 0 0 0 6.84 93.62Z" fill="#57B894"/><path d="M6.961 93.164a2.54 2.54 0 0 0 3.147-1.262 2.556 2.556 0 0 0-.894-3.276l-.299 1.007-.212-1.263a2.538 2.538 0 0 0-1.953.085 2.556 2.556 0 0 0 .21 4.709Z" stroke="#3F3D56" stroke-miterlimit="10"/><path d="M4.19 97.857a2.551 2.551 0 0 0 2.42 2.107 2.54 2.54 0 0 0 2.556-1.94A2.555 2.555 0 0 0 7.8 95.119a2.54 2.54 0 0 0-3.12.741l1.134 1.711-1.55-.908c-.12.386-.145.796-.074 1.195Z" fill="#57B894"/><path d="M4.295 97.519a2.551 2.551 0 0 0 2.42 2.107 2.54 2.54 0 0 0 2.556-1.94 2.555 2.555 0 0 0-1.366-2.906 2.54 2.54 0 0 0-3.12.741l1.134 1.71-1.55-.907c-.12.386-.145.796-.074 1.195Z" stroke="#3F3D56" stroke-miterlimit="10"/><path d="M90.029 63.639c1.748 0 3.165-1.838 3.165-4.105 0-2.266-1.417-4.104-3.165-4.104s-3.165 1.838-3.165 4.105c0 2.266 1.417 4.104 3.165 4.104ZM107.248 63.732c1.748 0 3.165-1.837 3.165-4.104 0-2.267-1.417-4.105-3.165-4.105s-3.165 1.838-3.165 4.105c0 2.267 1.417 4.104 3.165 4.104ZM104.828 71.754c0 1.855-2.584 3.358-5.77 3.358-3.188 0-5.771-1.503-5.771-3.358 0-1.606 1.938-2.95 4.527-3.278a9.301 9.301 0 0 1 1.243-.08 9.414 9.414 0 0 1 2.072.224c2.163.483 3.699 1.705 3.699 3.134Z" fill="#2F2E41"/><path d="M90.774 62.706c1.747 0 3.164-1.838 3.164-4.104 0-2.267-1.417-4.105-3.164-4.105-1.748 0-3.165 1.838-3.165 4.105 0 2.267 1.417 4.104 3.165 4.104ZM107.993 62.8c1.747 0 3.164-1.838 3.164-4.105 0-2.267-1.417-4.104-3.164-4.104-1.748 0-3.165 1.837-3.165 4.104 0 2.267 1.417 4.104 3.165 4.104ZM99.802 74.18c3.187 0 5.771-1.504 5.771-3.359 0-1.854-2.584-3.358-5.771-3.358s-5.77 1.504-5.77 3.358c0 1.855 2.583 3.359 5.77 3.359Z" stroke="#3F3D56" stroke-miterlimit="10"/><path d="M101.198 68.9a.917.917 0 0 1-.246.633.802.802 0 0 1-.592.262h-1.861a.868.868 0 0 1-.838-.895c0-.182.052-.36.153-.512a8.723 8.723 0 0 1 1.243-.085 8.851 8.851 0 0 1 2.072.239.955.955 0 0 1 .069.358ZM90.773 58.415a.932.932 0 1 0-.002-1.863.932.932 0 0 0 .002 1.863ZM108.086 58.415c.514 0 .93-.417.93-.933a.931.931 0 1 0-1.861 0c0 .516.417.933.931.933Z" fill="#fff"/><path opacity=".3" d="M109.016 67.183a.932.932 0 0 0 0-1.865.931.931 0 0 0-.93.933c0 .515.416.932.93.932ZM86.306 67.183a.932.932 0 1 0-.002-1.863.932.932 0 0 0 .002 1.864Z" fill="#2C37F1"/></g><defs><clipPath id="a"><path fill="#fff" transform="translate(.5)" d="M0 0h200v108.995H0z"/></clipPath></defs></svg>
