<svg xmlns="http://www.w3.org/2000/svg" style="display: none;">

    <symbol id="icon-bar-chart" viewBox="0 0 512 512">
      <path d="m160 392l-121 0 0-237 121 0z m156-362l-120 0 0 362 120 0z m157 231l-120 0 0 131 120 0z m39 165l-512 0 0 56 512 0z"/>
    </symbol>

    <symbol id="icon-calendar" viewBox="0 0 512 512">
      <path d="m183 306l-73 0 0-74 73 0z m111-74l-73 0 0 74 73 0z m111 0l-74 0 0 74 74 0z m-222 107l-73 0 0 74 73 0z m111 0l-73 0 0 74 73 0z m111 0l-74 0 0 74 74 0z m27-254c0 12-10 22-23 22-12 0-22-10-22-22l0-57c0-13 10-23 22-23 13 0 23 10 23 23z m-305-57c0-13-10-23-23-23-12 0-23 10-23 23l0 57c0 12 11 22 23 22 13 0 23-10 23-22z m332 33l0 23c0 27-22 50-50 50-27 0-50-23-50-50l0-23-205 0 0 23c0 27-22 50-50 50-27 0-50-23-50-50l0-23-54 0 0 446 512 0 0-446z m3 396l-412 0 0-276 412 0z"/>
    </symbol>

    <symbol id="icon-check-mark" viewBox="0 0 512 512">
      <path d="m0 246l34-35 165 99 284-271 29 29-301 405z"/>
    </symbol>

    <symbol id="icon-check-mark-2" viewBox="0 0 512 512">
      <path d="m433 53l-247 247-107-107-79 79 186 187 326-326z"/>
    </symbol>

    <symbol id="icon-clipboard" viewBox="0 0 512 512">
      <path d="m402 39c-11 0-22-4-30-12l-27-27-178 0-27 27c-8 8-19 12-30 12l-73 0 0 473 438 0 0-473z m23 423l-339 0 0-373 77 0 31 31 126 0 31-31 74 0z m-63-79l-209 0 0-37 209 0z m0-69l-209 0 0-37 209 0z m0-68l-209 0 0-38 209 0z"/>
    </symbol>

    <symbol id="icon-comparison" viewBox="0 0 512 512">
      <path d="m304 266l15-44 62 121-121 62 14-44c0 0-160-83-147-234 45 96 177 139 177 139z m82-139l0-127-386 0 0 386 126 0 0 126 386 0 0-385z m76 335l-286 0 0-128c-20-20-37-41-50-62l0 64-76 0 0-286 286 0 0 77-166 0c12 19 28 35 46 49l246 0z"/>
    </symbol>

    <symbol id="icon-crosshair" viewBox="0 0 512 512">
      <path d="m256 0c-141 0-256 115-256 256 0 141 115 256 256 256 141 0 256-115 256-256 0-141-115-256-256-256z m25 461l0-92-50 0 0 92c-94-11-169-86-180-180l92 0 0-50-92 0c11-94 86-169 180-180l0 92 50 0 0-92c94 11 169 86 180 180l-92 0 0 50 92 0c-11 94-86 169-180 180z"/>
    </symbol>

    <symbol id="icon-dashboard" viewBox="0 0 512 512">
      <path d="m427 269c-3-9-6-18-11-27l-52 24c4 8 8 17 11 26z m-268-20c6-7 12-14 20-20l-41-42c-7 6-13 13-19 20z m37-32c8-5 16-8 25-11l-22-55c-9 3-17 7-26 11z m-59 77c2-9 6-18 10-26l-52-23c-5 8-8 17-11 26z m201-132c-8-4-17-8-26-11l-21 55c8 2 17 6 25 11z m55 45c-6-7-12-14-19-20l-40 42c7 6 13 13 19 20z m-123-65c-5 0-9 0-14 0-4 0-9 0-14 0l0 59c5 0 9 0 14 0 5 0 9 0 14 0z m-14 294c-28 0-50-22-50-50 0-19 10-35 26-44l24-113 24 113c16 9 26 25 26 44 0 28-22 50-50 50z m-222 12c-21-38-34-81-34-128 0-141 115-256 256-256 141 0 256 115 256 256 0 47-12 90-34 128l-43-25c17-30 27-65 27-103 0-114-92-206-206-206-114 0-206 92-206 206 0 38 10 73 28 103z"/>
    </symbol>

    <symbol id="icon-platform" viewBox="0 0 512 512">
      <path d="m238 42l0 36-101 0 0-36z m-101 63l0 365 101 0 0-365z m-36 117l-101 0 0 36 101 0z m173-12l101 0 0-37-101 0z m0 27l0 233 101 0 0-233z m-274 48l0 185 101 0 0-185z m411 76l101 0 0-36-101 0z m0 28l0 81 101 0 0-81z"/>
    </symbol>

    <symbol id="icon-clear" viewBox="0 0 512 512">
      <path d="m256 0c-141 0-256 115-256 256 0 141 115 256 256 256 141 0 256-115 256-256 0-141-115-256-256-256z m-132 388c-64-64-71-163-24-235l259 259c-72 47-170 40-235-24z m288-29l-259-259c72-47 171-40 235 24 64 64 71 163 24 235z"/>
    </symbol>

    <symbol id="icon-settings" viewBox="0 0 512 512">
      <path d="m512 291l0-69-37-14c-14-5-26-16-32-30 0 0 0 0 0 0-5-13-5-29 2-43l17-36-49-48-36 17c-14 6-29 6-43 1 0 0 0 0 0 0-14-6-25-18-30-32l-13-37-69 0-14 37c-5 14-16 26-30 32 0 0 0 0 0 0-13 5-29 5-43-1l-36-17-48 48 17 36c6 14 6 30 1 43 0 0 0 0 0 0-6 14-18 25-32 30l-37 14 0 69 37 13c14 5 26 16 32 30 0 0 0 0 0 0 5 14 5 29-1 43l-17 36 48 49 36-17c14-7 30-7 43-2 0 0 0 0 0 0 14 6 25 18 30 32l14 37 69 0 13-37c5-14 16-26 30-32 0 0 0 0 0 0 14-5 29-5 43 1l36 18 49-49-17-36c-7-14-7-29-2-43 0 0 0 0 0 0 6-14 18-25 32-30z m-256 59c-52 0-94-42-94-94 0-52 42-94 94-94 52 0 94 42 94 94 0 52-42 94-94 94z"/>
    </symbol>

    <symbol id="icon-home" viewBox="0 0 512 512">
      <path d="m257 143l196 169 0 179-142 0 0-103-107 0 0 103-142 0 0-177z m0-46l217 191 38-38-254-229-258 230 38 38z"/>
    </symbol>

    <symbol id="icon-profile" viewBox="0 0 512 512">
      <path d="m257 331c-42-10-82-18-63-54 59-110 16-169-46-169-63 0-104 61-46 169 20 36-21 45-63 54-42 10-39 32-39 73l296 0c0-41 4-63-39-73z m255-218l-200 0 0 61 200 0z m0 115l-200 0 0 61 200 0z m0 115l-131 0 0 61 131 0z"/>
    </symbol>

    <symbol id="icon-laptop" viewBox="0 0 512 512">
      <path d="m512 385l0 16c0 14-11 25-25 25l-462 0c-14 0-25-11-25-25l0-16 208 0c1 8 8 12 16 12l64 0c8 0 15-4 16-12z m-77-266l-358 0 0 214 358 0 0-214m33 248l-424 0 0-256c0-14 11-25 25-25l375 0c13 0 24 11 24 25z"/>
    </symbol>

    <symbol id="icon-line-chart" viewBox="0 0 512 512">
      <path d="m18 290l35 9 26-42-50-12c-13-3-25 5-28 17-3 12 4 25 17 28z m455 7l-114 103-134-104c-3-2-6-4-9-5l-18-4-26 41 28 7 146 113c4 3 9 5 14 5 6 0 11-2 16-6l128-116c10-8 11-23 2-33-9-9-23-10-33-1z m-251-113l125 80c11 7 25 4 32-6l129-186c7-10 4-25-6-32-11-7-25-5-32 6l-116 167-126-81c-5-3-12-4-18-3-6 1-11 5-14 10l-192 302c-7 10-4 25 7 32 4 2 8 3 12 3 8 0 15-4 20-11z"/>
    </symbol>

    <symbol id="icon-line-chart-2" viewBox="0 0 512 512">
      <path d="m512 483l-512 0 0-271 82 83 109-119 159 156 162-96z m-431-254l108-119 167 163 156-93 0-66-146 83-178-168-106 116-82-79 0 81z"/>
    </symbol>

    <symbol id="icon-search" viewBox="0 0 512 512">
      <path d="m510 446l-135-136c19-31 31-68 31-108 0-111-91-202-202-202-111 0-202 91-202 202 0 111 91 202 202 202 38 0 73-10 103-28l137 136z m-433-244c0-70 57-127 127-127 70 0 127 57 127 127 0 70-57 127-127 127-70 0-127-57-127-127z"/>
    </symbol>

    <symbol id="icon-menu-1" viewBox="0 0 512 512">
      <path d="m129 256c0 35-29 64-65 64-35 0-64-29-64-64 0-36 29-64 64-64 36 0 65 28 65 64z m127-64c-35 0-64 28-64 64 0 35 29 64 64 64 36 0 64-29 64-64 0-36-28-64-64-64z m192 0c-36 0-64 28-64 64 0 35 28 64 64 64 35 0 64-29 64-64 0-36-29-64-64-64z"/>
    </symbol>

    <symbol id="icon-monitoring" viewBox="0 0 512 512">
      <path d="m144 287l18-109 19 78c2 9 13 9 16 2l16-43c0 0 8 19 10 22 2 3 3 5 8 5l21 0 0-17-15 0-16-35c-3-7-13-7-16 0l-14 36-22-96c-2-9-15-9-16 0l-18 111-19-68c-2-8-13-9-16-1l-13 53-16 0 0 17 22 0c3 0 6-2 7-5l8-28 20 79c2 9 15 8 16-1z m302 79c9-15 15-34 15-53 0-55-44-99-99-99-55 0-99 44-99 99 0 55 44 99 99 99 18 0 36-5 51-14l66 67 33-33z m-84 9c-34 0-62-28-62-62 0-34 28-62 62-62 34 0 62 28 62 62 0 34-28 62-62 62z m-125-7l-237 0 0-321 416 0 0 141c-13-6-28-10-43-11l0-88-330 0 0 237 183 0c1 15 5 29 11 42z m66 68l-197 0 43-42 103 0c13 18 31 32 51 42z"/>
    </symbol>

    <symbol id="icon-screen" viewBox="0 0 512 512">
      <path d="m29-50l-17-25c-1-1-1-2-1-3 0-2 1-3 2-4 1-1 3-2 4-2 2 0 4 1 5 3l14 22 14-22c1-2 2-3 4-3 2 0 3 1 4 2 2 1 2 2 2 4 0 1 0 2-1 3l-16 25 16 26c1 1 1 2 1 3 0 2 0 3-2 4-1 1-2 1-4 1-2 0-3 0-4-2l-14-22-14 22c-1 2-3 2-5 2-1 0-3 0-4-1-1-1-2-2-2-4 0-1 0-2 1-3z m-13-98c0-4 2-5 6-6l38 0c7 0 12 1 17 3 6 2 10 4 14 8 4 3 7 8 9 13 3 6 4 13 4 21l0 2c0 8-1 15-4 21-2 5-5 10-9 14-4 3-8 6-14 7-5 2-11 3-17 3l-30 0 0 57c0 1-1 3-2 4-2 1-3 1-5 1-2 0-4 0-5-1-1-1-2-3-2-4z m14 7l0 67 30 0c9 0 17-3 22-8 5-5 8-13 8-24l0-3c0-11-3-19-8-24-5-5-13-8-22-8z m58 26c0-3-1-5-1-8-1-3-3-6-5-8-2-3-5-5-8-7-4-2-9-3-16-3-9 0-17 3-22 8-5 5-8 13-8 24l0 65c0 11 3 19 8 25 5 5 13 7 23 7 7 0 11 0 15-2 4-2 7-4 8-7 2-2 4-5 4-8 1-3 2-6 2-8 0-4 3-6 7-6 2 0 4 1 5 2 1 1 2 3 2 7 0 5-1 9-3 13-2 5-5 8-9 12-4 3-8 6-14 7-5 2-11 3-18 3-6 0-12-1-17-2-5-2-10-4-14-8-4-3-7-8-9-14-3-5-4-12-4-21l0-65c0-8 1-15 4-20 2-6 5-11 9-14 4-4 9-6 14-8 6-2 11-3 17-3 7 0 13 1 19 3 5 2 10 5 13 8 4 3 7 7 9 11 2 4 3 9 3 14 0 3-1 5-2 6-1 1-3 2-5 2-3 0-4-1-5-2-1 0-2-2-2-3z m-88 131l0 396 512 0 0-396z m460 344l-408 0 0-291 408 0z m-131 83l52 53-250 0 52-53z"/>
    </symbol>

    <symbol id="icon-segmentation" viewBox="0 0 512 512">
      <path d="m278 107l0-36 59-59c9 3 18 6 26 10z m151-41l-151 150 0 18 18 0 151-151c-6-6-12-12-18-17z m-151-32l30-30c-9-2-20-3-30-4z m230 170l-30 30 34 0c-1-10-2-20-4-30z m-8-29c-3-9-6-17-10-26l-84 85 35 0z m-23-50c-4-7-9-14-14-21l-130 130 36 0z m-68-76c-7-5-14-10-22-14l-109 109 0 35z m-174 228l0-277c-132 11-235 121-235 256 0 141 115 256 257 256 134 0 244-103 255-235z"/>
    </symbol>

    <symbol id="icon-plus" viewBox="0 0 512 512">
      <path d="m512 198l-198 0 0-198-116 0 0 198-198 0 0 116 198 0 0 198 116 0 0-198 198 0z"/>
    </symbol>

    <symbol id="icon-sort-descending" viewBox="0 0 512 512">
      <path d="m256 83l65 86-130 0z m0-83l-164 219 328 0z m164 293l-328 0 164 219z"/>
    </symbol>

    <symbol id="icon-sort-ascending" viewBox="0 0 512 512">
      <path d="m256 0l-164 219 328 0z m65 343l-65 86-65-86z m99-50l-328 0 164 219z"/>
    </symbol>

    <symbol id="icon-audience" viewBox="0 0 512 512">
      <path d="m256 0l164 219-328 0z m164 293l-328 0 164 219z"/>
    </symbol>

    <symbol id="icon-tablet" viewBox="0 0 512 512">
      <path d="m453 472l0-432c0-22-18-40-40-40l-314 0c-22 0-40 18-40 40l0 432c0 22 18 40 40 40l314 0c22 0 40-18 40-40z m-344-16l0-400 294 0 0 400z m136 28c0-5 5-10 11-10 6 0 11 5 11 10 0 6-5 11-11 11-6 0-11-5-11-11z"/>
    </symbol>

    <symbol id="icon-time-2" viewBox="0 0 512 512">
      <path d="m57 250c0 13 0 26 2 38l-54 14c-3-17-4-34-4-52z m-17 141l45-32c-6-11-12-23-16-35l-54 14c6 19 14 37 25 53z m96 24c-10-8-20-16-29-26l-45 32c13 16 29 31 46 43z m120-414c-69 0-137 28-183 73l-44-44-29 156 156-28-44-45c36-35 90-57 144-57 111 0 200 90 200 200 0 110-89 200-200 200-31 0-62-8-88-21l-29 48c36 18 75 28 117 28 142 0 256-114 256-255 0-141-114-255-256-255z m129 255l-112 0 0-125-50 0 0 175 162 0z"/>
    </symbol>

    <symbol id="icon-live" viewBox="0 0 512 512">
      <path d="m372 86l26-38 41 28-26 38c-13-11-26-21-41-28z m-153-86l0 59c12-2 24-3 37-3 13 0 25 1 37 3l0-59z m250 300c0 117-96 212-213 212-117 0-212-95-212-212 0-118 95-213 212-213 117 0 213 95 213 213z m-56 0c0-87-70-157-157-157-87 0-157 70-157 157 0 86 70 156 157 156 87 0 157-70 157-156z m-116 11c0 21-17 39-39 39-21 0-39-18-39-39 0-14 8-26 19-33l14-108c0-2 2-4 5-4 2 0 4 2 5 4l16 107c12 7 19 20 19 34z m-27 124l-25 0 0-32 25 0z m123-148l0 25-32 0 0-25z m-272 0l0 25 32 0 0-25z m241 100l-17 17-21-21 17-18z m-192-193l-18 18 22 21 17-18z m175 0l17 18-21 21-17-18z m-193 193l18 17 21-21-17-18z"/>
    </symbol>

    <symbol id="icon-tv" viewBox="0 0 512 512">
      <path d="m136 157l118 0 0 30-42 0 0 96-34 0 0-96-42 0z m208 0l-24 77-24-77-36 0 41 126 37 0 42-126z m-210 264c25 30 70 49 122 49 52 0 97-19 123-49z m-134-379l0 348 512 0 0-348z m462 298l-412 0 0-249 412 0z"/>
    </symbol>

    <symbol id="icon-tv-play" viewBox="0 0 512 512">
      <path d="m379 421c-26 30-71 49-123 49-52 0-97-19-122-49z m133-379l0 348-512 0 0-348z m-50 49l-412 0 0 249 412 0z m-249 202l0-149 121 74z"/>
    </symbol>

    <symbol id="icon-users" viewBox="0 0 512 512">
      <path d="m512 427l-132 0c0-144-72-76-72-202 0-45 30-70 68-70 56 0 96 54 42 155-17 33 19 41 58 50 39 9 36 30 36 67z m-215-84c-49-11-95-21-72-63 67-127 17-195-54-195-72 0-121 70-53 195 23 42-25 52-73 63-49 11-45 37-45 84l343 0c0-47 3-73-46-84z"/>
    </symbol>

    <symbol id="icon-vod" viewBox="0 0 512 512">
      <path d="m256 96c-89 0-161 71-161 159 0 88 72 160 161 160 89 0 161-72 161-160 0-88-72-159-161-159z m-46 247l0-172 140 86z m71-343c82 8 155 55 197 127 41 72 45 159 11 234l-43-25c25-59 21-127-11-184-33-56-90-94-154-101z m183 404c-47 67-125 107-208 107-83 0-160-40-208-107l43-25c39 52 100 83 165 83 65 0 126-31 165-83z m-441-43c-34-75-30-162 11-234 42-72 115-119 197-127l0 51c-64 7-121 45-154 101-32 57-36 125-11 184z"/>
    </symbol>

    <symbol id="icon-remove" viewBox="0 0 512 512">
      <path d="m367 336c6 6 9 13 9 22c0 8-3 16-9 22c-6 5-13 8-22 8c-8 0-16-3-22-8c0 0-68-78-68-78c0 0-67 78-67 78c-6 5-14 8-22 8c-9 0-16-3-22-8c-6-6-8-14-8-22c0-9 2-16 8-22c0 0 71-80 71-80c0 0-71-81-71-81c-6-6-8-13-8-22c0-8 2-16 8-22c6-5 13-8 22-8c8 0 16 3 22 8c0 0 67 78 67 78c0 0 68-78 68-78c6-5 14-8 22-8c9 0 16 3 22 8c6 6 9 14 9 22c0 9-3 16-9 22c0 0-71 81-71 81c0 0 71 80 71 80"/>
    </symbol>

    <symbol id="icon-down-open-mini" viewBox="0 0 512 512">
      <path d="m344 195c8-9 16-9 25 0c9 7 9 15 0 24c0 0-101 98-101 98c-7 8-15 8-24 0c0 0-101-98-101-98c-9-9-9-17 0-24c9-9 17-9 26 0c0 0 87 79 87 79c0 0 88-79 88-79"/>
    </symbol>

    <symbol id="icon-download" viewBox="0 0 512 512">
      <path d="m495 334c7 3 11 9 14 16c3 8 4 15 2 21c0 0-14 79-14 79c-2 6-6 12-12 16c-6 5-13 7-20 7c0 0-418 0-418 0c-8 0-14-2-21-7c-6-4-9-10-11-16c0 0-14-79-14-79c-4-17 2-29 16-37c0 0 81-55 81-55c0 0 50 0 50 0c0 0-87 66-87 66c0 0 91 0 91 0c3 0 5 1 7 4c0 0 20 57 20 57c0 0 154 0 154 0c0 0 20-57 20-57c3-3 5-4 6-4c0 0 91 0 91 0c0 0-87-66-87-66c0 0 51 0 51 0c0 0 81 55 81 55m-106-165c0 0-133 125-133 125c0 0-133-125-133-125c0 0 85 0 85 0c0 0 0-131 0-131c0 0 97 0 97 0c0 0 0 131 0 131c0 0 84 0 84 0"/>
    </symbol>

    <symbol id="icon-left-open-mini" viewBox="0 0 512 512">
      <path d="m317 343c9 9 9 17 0 25c-9 8-17 8-24 0c0 0-99-100-99-100c-8-8-8-16 0-25c0 0 99-100 99-100c7-9 15-9 24 0c9 8 9 16 0 25c0 0-80 88-80 88c0 0 80 87 80 87"/>
    </symbol>

    <symbol id="icon-back" viewBox="0 0 512 512">
      <path d="m141 256c0 0 0 46 0 46c0 0-103-82-103-82c0 0 103-87 103-87c0 0 0 51 0 51c0 0 281 0 281 0c14 0 26 5 36 15c10 10 16 22 16 37c0 0 0 143 0 143c0 0-72 0-72 0c0 0 0-123 0-123c0 0-261 0-261 0"/>
    </symbol>

    <symbol id="icon-list" viewBox="0 0 512 512">
      <path d="m128 333c7 0 13 2 18 7c5 6 8 12 8 18c0 7-3 13-8 18c-5 5-11 8-18 8c0 0-26 0-26 0c-6 0-12-3-18-8c-5-5-7-11-7-18c0-6 2-12 7-18c5-5 11-7 18-7c0 0 26 0 26 0m0-103c7 0 13 3 18 8c5 5 8 11 8 18c0 7-3 13-8 18c-5 5-11 8-18 8c0 0-26 0-26 0c-6 0-12-3-18-8c-5-5-7-11-7-18c0-7 2-13 7-18c5-5 11-8 18-8c0 0 26 0 26 0m0-102c7 0 13 3 18 8c5 5 8 11 8 18c0 6-3 12-8 18c-5 5-11 7-18 7c0 0-26 0-26 0c-6 0-12-2-18-7c-5-6-7-12-7-18c0-7 2-13 7-18c5-5 11-8 18-8c0 0 26 0 26 0m102 51c-6 0-12-2-18-7c-5-6-7-12-7-18c0-7 2-13 7-18c6-5 12-8 18-8c0 0 180 0 180 0c7 0 13 3 18 8c5 5 7 11 7 18c0 6-2 12-7 18c-6 5-12 7-18 7c0 0-180 0-180 0m180 51c7 0 13 3 18 8c5 5 7 11 7 18c0 7-2 13-7 18c-6 5-12 8-18 8c0 0-180 0-180 0c-6 0-12-3-18-8c-5-5-7-11-7-18c0-7 2-13 7-18c6-5 12-8 18-8c0 0 180 0 180 0m0 103c7 0 13 2 18 7c5 6 7 12 7 18c0 7-2 13-7 18c-6 5-12 8-18 8c0 0-180 0-180 0c-6 0-12-3-18-8c-5-5-7-11-7-18c0-6 2-12 7-18c6-5 12-7 18-7c0 0 180 0 180 0"/>
    </symbol>

    <symbol id="icon-menu2" viewBox="0 0 512 512">
      <path d="m410 230c7 0 13 3 18 8c5 5 7 11 7 18c0 7-2 13-7 18c-6 5-12 8-18 8c0 0-308 0-308 0c-6 0-12-3-18-8c-5-5-7-11-7-18c0-7 2-13 7-18c5-5 11-8 18-8c0 0 308 0 308 0m-308-51c-6 0-12-2-18-7c-5-6-7-12-7-18c0-7 2-13 7-18c5-5 11-8 18-8c0 0 308 0 308 0c7 0 13 3 18 8c5 5 7 11 7 18c0 6-2 12-7 18c-6 5-12 7-18 7c0 0-308 0-308 0m308 154c7 0 13 2 18 7c5 6 7 12 7 18c0 7-2 13-7 18c-6 5-12 8-18 8c0 0-308 0-308 0c-6 0-12-3-18-8c-5-5-7-11-7-18c0-6 2-12 7-18c5-5 11-7 18-7c0 0 308 0 308 0"/>
    </symbol>

    <symbol id="icon-mobile" viewBox="0 0 512 512">
      <path d="m353 5c15 0 27 5 37 15c10 10 14 22 14 36c0 0 0 400 0 400c0 13-4 25-14 36c-10 10-22 15-37 15c0 0-194 0-194 0c-14 0-26-5-36-15c-10-11-15-23-15-36c0 0 0-400 0-400c0-14 5-26 15-36c10-10 22-15 36-15c0 0 194 0 194 0m-97 481c10 0 19-2 26-7c6-5 10-11 10-18c0-8-4-14-10-19c-7-4-16-7-26-7c-10 0-18 3-25 8c-7 5-11 11-11 18c0 7 4 13 11 18c7 5 15 7 25 7m108-76c0 0 0-338 0-338c0 0-216 0-216 0c0 0 0 338 0 338c0 0 216 0 216 0"/>
    </symbol>

    <symbol id="icon-right-open-mini" viewBox="0 0 512 512">
      <path d="m195 343c0 0 81-87 81-87c0 0-81-88-81-88c-9-9-9-17 0-25c9-9 17-9 24 0c0 0 99 100 99 100c8 9 8 17 0 25c0 0-99 100-99 100c-7 8-15 8-24 0c-9-8-9-16 0-25"/>
    </symbol>

    <symbol id="icon-up-open-mini" viewBox="0 0 512 512">
      <path d="m169 317c-9 8-17 8-26 0c-8-8-8-16 0-25c0 0 101-97 101-97c9-9 17-9 24 0c0 0 101 97 101 97c8 9 8 17 0 25c-9 8-17 8-26 0c0 0-87-80-87-80c0 0-87 80-87 80"/>
    </symbol>

    <symbol id="icon-trash" viewBox="0 0 512 512">
      <path d="m87 201c42 24 98 36 169 36c71 0 127-12 169-36c0 0-28 249-28 249c0 4-6 10-18 18c-11 7-28 15-51 22c-23 7-47 11-72 11c-25 0-49-4-72-11c-22-7-39-15-51-22c-11-8-18-14-18-18c0 0-28-249-28-249m250-154c32 6 59 16 81 28c22 13 33 25 33 37c0 0 0 5 0 5c0 20-20 36-58 50c-38 14-84 21-137 21c-53 0-99-7-137-21c-38-14-58-30-58-50c0 0 0-5 0-5c0-12 11-24 33-37c22-12 49-22 81-28c0 0 22-24 22-24c7-9 19-14 35-14c0 0 48 0 48 0c17 0 29 5 35 14c0 0 22 24 22 24m-28 57c0 0 43 0 43 0c-31-37-49-59-53-64c-5-6-10-8-16-8c0 0-53 0-53 0c-7 0-13 2-16 8c0 0-54 64-54 64c0 0 43 0 43 0c0 0 33-33 33-33c0 0 42 0 42 0c0 0 31 33 31 33"/>
    </symbol>

    <symbol id="icon-logout" viewBox="0 0 512 512">
      <path d="m210 421l0-109 193 0 0-54 109 109-109 108 0-54-193 0z m78-147l51 0 0-237-339 0 0 388 143-110 0-226 145 0z"/>
    </symbol>

    <symbol id="icon-user" viewBox="0 0 512 512">
      <path d="m407 360c-59-13-114-25-87-75 81-153 22-235-64-235-87 0-145 85-64 235 27 50-30 62-87 75-59 14-55 45-55 102l412 0c0-57 4-88-55-102z"/>
    </symbol>

    <symbol id="icon-align" viewBox="0 0 512 512">
      <path d="m23 0l34 0 0 512-34 0z m71 287l395 0 0 132-395 0z m0-194l233 0 0 132-233 0z"/>
    </symbol>

    <symbol id="icon-clock" viewBox="0 0 512 512">
      <path d="m256 20c65 0 120 24 166 70c46 46 70 101 70 166c0 65-24 120-70 166c-46 46-101 70-166 70c-65 0-120-24-166-70c-46-46-70-101-70-166c0-65 24-120 70-166c46-46 101-70 166-70m0 420c51 0 95-18 131-54c35-36 53-79 53-130c0-51-18-95-53-131c-36-35-80-53-131-53c-51 0-94 18-130 53c-36 36-54 80-54 131c0 51 18 94 54 130c36 36 79 54 130 54m18-317c0 0 0 125 0 125c0 0 77 77 77 77c0 0-25 25-25 25c0 0-87-87-87-87c0 0 0-140 0-140c0 0 35 0 35 0"/>
    </symbol>

    <symbol id="icon-time-6-icon" viewBox="0 0 512 512">
      <path d="m511 250c0 18-1 35-4 52l-55-14c3-12 3-25 3-38z m-14 88l-54-14c-4 12-10 24-16 35l45 32c10-16 19-34 25-53z m-93 126c17-12 33-27 46-43l-46-32c-8 10-18 18-28 26z m-404-208c0 141 114 255 255 255 43 0 82-10 117-28l-28-48c-27 13-57 21-89 21-110 0-199-90-199-200 0-110 89-200 199-200 55 0 109 22 145 57l-45 45 157 28-29-156-44 44c-46-45-114-73-184-73-141 0-255 114-255 255z m321 74l0-33-59 0 0-29 62-84 30 0 0 85 18 0 0 28-18 0 0 33z m0-61l0-39-29 39z m-178 61c0-22 7-39 29-55 25-20 45-27 45-45 0-12-7-19-18-19-16 0-20 17-20 32l-32 0c-2-40 21-62 53-62 30 0 51 20 51 47 0 13-4 24-13 34-14 15-36 22-50 38l64 0 0 30z"/>
    </symbol>

    <symbol id="icon-user-add" viewBox="0 0 512 512">
      <path d="m317 370c62 22 93 42 93 62c0 0 0 54 0 54c0 0-410 0-410 0c0 0 0-103 0-103c12-5 26-9 42-13c32-12 54-24 66-36c12-12 18-28 18-48c0-8-4-16-12-25c-8-9-13-21-16-38c0-4-4-8-11-13c-8-4-12-14-13-31c0-5 1-10 2-13c2-4 4-6 5-6c0 0 2-2 2-2c-3-17-5-32-6-45c-2-19 5-38 20-58c16-19 43-29 82-29c39 0 66 10 82 29c16 20 23 39 22 58c0 0-8 45-8 45c7 2 10 10 10 21c-1 10-3 17-5 22c-2 5-5 8-7 9c-2 1-5 2-7 4c-3 2-4 5-5 9c-3 16-9 28-17 38c-8 9-12 17-12 25c0 20 7 36 19 48c12 12 34 24 66 36m118-140c0 0 77 0 77 0c0 0 0 52 0 52c0 0-77 0-77 0c0 0 0 76 0 76c0 0-51 0-51 0c0 0 0-76 0-76c0 0-77 0-77 0c0 0 0-52 0-52c0 0 77 0 77 0c0 0 0-76 0-76c0 0 51 0 51 0c0 0 0 76 0 76"/>
    </symbol>

    <symbol id="icon-audience-builder" viewBox="0 0 512 512">
      <path d="m512 362l-99 0c0-108-54-56-54-151 0-34 22-53 51-53 42 0 72 41 32 117-14 25 14 30 43 37 29 7 27 22 27 50z m-485-50c30-7 57-12 44-37-41-76-11-117 31-117 29 0 52 19 52 53 0 95-54 43-54 151l-100 0c0-28-2-43 27-50z m324-13c-37-8-72-16-55-47 51-95 13-146-40-146-54 0-91 53-40 146 17 32-18 39-54 47-37 9-35 28-35 63l258 0c0-35 2-54-34-63z m34 64l-258 0 0-1c0-2 0-4 0-7 0-15 0-27 4-36 5-10 14-16 30-20l3 0c25-6 49-12 55-25 3-6 2-13-3-22-14-25-22-49-24-69-2-19 1-36 9-49 6-9 13-16 23-21 9-5 20-8 32-8 12 0 23 3 32 8 10 5 17 12 23 21 16 27 11 69-15 118-4 9-5 16-3 22 7 13 31 19 56 25l2 0c16 4 25 10 30 20 4 9 4 21 4 36 0 3 0 5 0 7z m-257-1l256 0c0-2 0-4 0-7 1-15 1-27-4-36-4-10-13-16-29-20l-2 0c-25-6-50-11-56-25-3-6-2-13 3-22 26-49 31-91 14-118-5-9-13-16-22-21-10-5-20-7-32-7-12 0-23 2-32 7-10 5-17 12-23 21-7 13-10 30-9 49 3 20 11 44 24 69 5 9 6 16 3 22-6 14-30 19-55 25l-2 0c-17 4-26 10-30 20-5 9-4 21-4 36 0 3 0 5 0 7z m-28 1l-100 0 0-1c0-1 0-3 0-5 0-12 0-22 3-29 4-8 11-13 24-16l1 0c21-5 40-9 45-20 2-5 1-10-3-17-20-39-24-72-11-94 4-8 10-13 18-17 8-4 16-6 25-6 15 0 28 5 37 14 10 9 15 23 15 39 0 21-3 36-8 47-5 11-11 16-18 23-14 12-28 26-28 81z m-100-1l99 0c0-55 15-69 29-82 13-12 25-23 25-69 0-16-5-30-14-39-9-9-22-14-37-14-9 0-17 2-25 6-7 4-13 10-18 17-13 22-9 55 12 94 3 7 4 12 2 17-5 11-24 15-45 20l-1 0c-27 7-27 20-27 45 0 2 0 3 0 5z m512 1l-100 0 0-1c0-55-14-69-28-81-7-7-13-12-18-23-5-11-8-26-8-47 0-16 6-30 15-39 9-9 22-14 37-14 9 0 18 2 25 6 8 4 14 9 18 17 13 22 9 55-11 94-4 7-5 12-3 17 5 11 25 15 45 20l1 0c13 3 20 8 24 16 3 7 3 17 3 29 0 2 0 4 0 5z m-99-1l99 0c0-2 0-3 0-5 0-25 0-38-27-45l-1 0c-21-5-40-9-45-20-2-5-1-10 2-17 21-39 25-72 12-94-4-7-11-13-18-17-8-4-16-6-25-6-15 0-27 5-37 14-9 9-14 23-14 39 0 46 12 57 25 69 14 13 29 27 29 82z"/>
    </symbol>

    <symbol id="icon-ta-remove" viewBox="0 0 512 512">
      <path d="m136 440l-26-20 266-352 26 20z m-9-80l51-67c-6 2-11 3-16 4-37 9-35 28-35 63z m0 0l0 0c0-2 0-5 0-7 0-15 0-27 4-36 5-10 14-16 30-20l3 0c4-2 9-3 13-4l1 0z m50-66c-4 1-9 2-13 3l-2 0c-17 4-26 10-30 20-5 9-4 21-4 36 0 2 0 4 0 6z m128-170c-12-13-29-20-49-20-54 0-89 51-42 141z m-91 122l0 0c-13-25-20-47-22-68-2-18 2-34 9-46 6-9 14-16 23-21 10-5 20-8 32-8 20 0 38 8 49 21l0 0 0 0z m42-142c-12 0-22 2-32 7-9 5-17 12-22 21-10 15-21 51 12 113l91-121c-11-13-29-20-49-20z m-102 105c0-34-23-53-52-53-42 0-72 41-31 117 13 24-14 30-44 37-29 7-27 22-27 50l100 0c0-108 54-56 54-151z m-54 152l-100 0 0-1c0-2 0-3 0-5 0-12 0-22 3-29 4-8 11-13 24-16l1 0c21-5 40-9 45-20 2-5 1-10-3-17-20-39-24-73-11-94 4-8 10-13 18-17 8-4 16-6 25-6 15 0 28 5 37 14 10 9 15 23 15 39 0 21-3 36-8 47-5 11-11 16-18 23-14 12-28 26-28 81z m-100-1l99 0c0-56 15-69 29-82 13-12 25-23 25-69 0-16-5-30-14-39-9-9-22-14-37-14-9 0-17 2-25 6-7 4-13 10-18 17-13 22-9 55 12 93 3 7 4 13 2 18-5 11-24 15-45 20l-1 0c-27 7-27 20-27 45 0 2 0 3 0 5z m351-63c-28-6-54-12-58-27l-69 90 161 0c0-35 2-54-34-63z m34 64l-161 0 0-1 69-90 0 0c4 15 30 21 56 27l2 0c16 4 25 10 30 20 4 9 4 21 4 36 0 3 0 5 0 7z m-160-1l159 0c0-2 0-4 0-7 1-15 1-27-4-36-4-10-13-16-29-20l-2 0c-26-6-51-12-56-27z m260-50c-29-7-57-13-43-37 40-76 10-117-32-117-29 0-51 19-51 53 0 95 54 43 54 151l99 0c0-28 2-43-27-50z m27 51l-100 0 0-1c0-55-14-69-28-81-7-7-13-12-18-23-5-11-8-26-8-47 0-16 6-30 15-39 9-9 22-14 37-14 9 0 18 2 25 6 8 4 14 9 18 17 13 21 9 55-11 94-4 6-5 12-3 17 5 11 25 15 45 20l1 0c13 3 20 8 24 16 3 7 3 17 3 29 0 2 0 3 0 5l0 1z m-99-1l99 0c0-2 0-3 0-5 0-25 0-38-27-45l-1 0c-21-5-40-9-45-20-2-5-1-11 2-18 21-38 25-71 12-93-4-7-11-13-18-17-8-4-16-6-25-6-15 0-27 5-37 14-9 9-14 23-14 39 0 46 12 57 25 69 14 13 29 26 29 82z"/>
    </symbol>

    <symbol id="icon-edit-2-icon" viewBox="0 0 512 512">
      <path d="m115 435l-115 0 0-43 115 0z m67-122l94 93-124 29z m330-140l-207 207-96-97 206-206z m-95-48l-159 159 22 21 158-158z"/>
    </symbol>

    <symbol id="icon-overview" viewBox="0 0 512 512">
      <path d="m86 366l-43 18 0-277 256-107 0 53-213 90z m384-238l-256 107 0 277 256-107z m-299 79l213-90 0-53-256 107 0 277 43-18z"/>
    </symbol>

    <symbol id="icon-help-circled" viewBox="0 0 512 512">
      <path d="m253 20c65 0 120 22 167 67c46 45 70 100 72 165c0 65-22 121-68 167c-45 47-100 71-165 73c-65 0-121-22-167-68c-47-45-71-100-72-165c-1-65 21-121 67-167c46-47 101-71 166-72m-1 379c10 0 19-3 25-9c6-7 10-15 10-24c0-11-2-19-9-26c-6-6-15-9-25-9c0 0-1 0-1 0c-10 0-18 3-24 9c-7 6-10 14-11 24c0 10 3 18 10 25c6 6 14 10 24 10c0 0 1 0 1 0m85-168c9-11 13-24 13-40c0-26-9-46-27-59c-18-13-41-19-69-19c-22 0-40 4-53 13c-24 14-36 39-37 75c0 0 0 2 0 2c0 0 56 0 56 0c0 0 0-2 0-2c0-9 3-18 8-28c6-8 15-12 28-12c14 0 23 3 27 10c5 7 8 14 8 23c0 6-3 13-8 20c-3 4-7 8-11 10c0 0-3 2-3 2c-2 2-4 4-8 6c-3 2-7 5-10 8c-4 2-7 5-11 8c-4 3-7 6-9 9c-4 7-7 20-9 40c0 0 0 4 0 4c0 0 56 0 56 0c0 0 0-2 0-2c0-4 0-9 2-14c2-7 6-13 14-19c0 0 14-9 14-9c16-12 25-20 29-26"/>
    </symbol>

    <symbol id="icon-bell" viewBox="0 0 512 512">
      <path d="m195 450l123 0c0 34-27 62-61 62-34 0-62-28-62-62z m277-82l0 45-432 0 0-45c105-34 47-226 148-284 14-8 23-23 23-39 0 0 0 0 0 0 0-25 20-45 45-45 25 0 45 20 45 45 0 0 0 0 0 0 0 16 9 31 23 39 101 58 43 250 148 284z m-248-254c-73 41-51 213-97 249l46 0c36-61 9-200 51-249z m50-69c0-10-8-18-18-18-10 0-18 8-18 18 0 10 8 19 18 19 10 0 18-9 18-19z"/>
    </symbol>

    <symbol id="icon-attention" viewBox="0 0 512 512">
      <path d="m499 447c4 6 4 12 0 18c-3 5-8 8-15 8c0 0-457 0-457 0c-6 0-11-3-14-8c-4-6-4-12-1-18c0 0 228-400 228-400c3-6 8-9 16-9c7 0 12 3 15 9c0 0 228 400 228 400m-215-25c0 0 0-51 0-51c0 0-56 0-56 0c0 0 0 51 0 51c0 0 56 0 56 0m0-89c0 0 0-154 0-154c0 0-56 0-56 0c0 0 0 154 0 154c0 0 56 0 56 0"/>
    </symbol>

    <symbol id="icon-copy" viewBox="0 0 512 512">
      <path d="m360 152l0-102-310 0 0 310 102 0 0 102 310 0 0-310z m-270 168l0-230 230 0 0 62-168 0 0 168z m332 102l-230 0 0-230 230 0z m-41-94l-53 0 0 54-40 0 0-54-54 0 0-40 54 0 0-54 40 0 0 54 53 0z"/>
    </symbol>

    <symbol id="icon-bookmark" viewBox="0 0 512 512">
      <path d="m406 512l-104-92-104 92 0-420 208 0z m-246-458l154 0 0-54-208 0 0 420 54-48z"/>
    </symbol>

    <symbol id="icon-video" viewBox="0 0 512 512">
      <path d="m507 128c0 0-51 0-51 0c0 0 0 51 0 51c0 0 51 0 51 0c0 0 0 51 0 51c0 0-51 0-51 0c0 0 0 52 0 52c0 0 51 0 51 0c0 0 0 51 0 51c0 0-51 0-51 0c0 0 0 51 0 51c0 0 51 0 51 0c0 0 0 31 0 31c0 5-2 10-6 14c-4 4-9 6-15 6c0 0-460 0-460 0c-6 0-11-2-15-6c-4-4-6-9-6-14c0 0 0-31 0-31c0 0 51 0 51 0c0 0 0-51 0-51c0 0-51 0-51 0c0 0 0-51 0-51c0 0 51 0 51 0c0 0 0-52 0-52c0 0-51 0-51 0c0 0 0-51 0-51c0 0 51 0 51 0c0 0 0-51 0-51c0 0-51 0-51 0c0 0 0-31 0-31c0-6 2-11 6-15c4-3 9-5 15-5c0 0 460 0 460 0c6 0 11 2 15 5c4 4 6 9 6 15c0 0 0 31 0 31m-307 205c0 0 128-77 128-77c0 0-128-77-128-77c0 0 0 154 0 154"/>
    </symbol>

    <symbol id="icon-youtube" viewBox="0 0 512 512">
      <path d="m389 363l-25 0l0-15c0-7 5-12 12-12l1 0c7 0 12 5 12 12z m-95-32c-6 0-12 4-12 10l0 71c0 5 6 10 12 10c6 0 12-5 12-10l0-71c0-6-6-10-12-10z m154-40l0 136c0 33-28 59-63 59l-258 0c-35 0-63-26-63-59l0-136c0-32 28-59 63-59l258 0c35 0 63 27 63 59z m-304 151l0-143l32 0l0-21l-85-1l0 21l26 0l0 144z m96-122l-27 0l0 76c0 12 1 17 0 19c-2 6-12 12-15 1c-1-2 0-8 0-19l-1-77l-26 0l0 76c0 11 0 20 0 24c1 7 0 15 7 20c12 8 35-2 41-14l0 16l21 0l0-122z m85 88l0-64c0-24-18-39-42-19l0-47l-27 0l0 163l22 0l2-11c28 26 46 8 45-22z m84-9l-20 0c0 1 0 2 0 3l0 11c0 6-5 11-11 11l-4 0c-6 0-11-5-11-11l0-29l46 0l0-17c0-13 0-26-1-33c-4-23-36-26-52-15c-5 4-9 9-11 15c-2 7-3 16-3 27l0 38c0 63 76 54 67 0z m-103-206c2 4 4 6 7 8c3 2 6 3 11 3c4 0 7-1 10-3c3-2 5-5 7-9l0 10l30 0l0-127l-24 0l0 99c0 5-4 10-10 10c-5 0-9-5-9-10l0-99l-25 0l0 86c0 11 0 18 1 22c0 3 1 7 2 10z m-90-71c0-12 1-22 3-29c2-7 6-12 11-16c5-4 12-6 20-6c7 0 13 1 18 4c5 2 9 6 11 10c3 4 5 9 6 13c1 5 1 12 1 21l0 32c0 12 0 20-1 26c-1 5-3 10-6 15c-3 5-7 8-11 11c-5 2-10 3-16 3c-7 0-13-1-18-3c-4-2-8-5-11-9c-2-4-4-8-5-14c-1-5-2-14-2-25l0-33z m23 50c0 7 6 13 12 13c7 0 12-6 12-13l0-67c0-8-5-13-12-13c-6 0-12 5-12 13z m-82 34l28 0l0-97l33-83l-30 0l-18 62l-18-62l-30 0l35 83z"/>
    </symbol>

    <symbol id="icon-more-closed" viewBox="0 0 512 512">
      <path d="m0 0l40 0 0 512-40 0z m472 0l40 0 0 512-40 0z m-472 0l512 0 0 40-512 0z m0 472l512 0 0 40-512 0z m153-236l206 0 0 40-206 0z m83-83l40 0 0 206-40 0z"/>
    </symbol>

    <symbol id="icon-more-open" viewBox="0 0 512 512">
      <path d="m0 0l40 0 0 512-40 0z m472 0l40 0 0 512-40 0z m-472 0l512 0 0 40-512 0z m0 472l512 0 0 40-512 0z m153-236l206 0 0 40-206 0z"/>
    </symbol>

    <symbol id="icon-waterfall" viewBox="0 0 512 512">
      <path d="m0 0l162 0 0 211-162 0z m350 301l162 0 0 211-162 0z m-175-90l162 0 0 90-162 0z"/>
    </symbol>

    <symbol id="icon-list-add" viewBox="0 0 512 512">
      <path d="m179 230c8 0 14 3 19 8c4 5 7 11 7 18c0 7-3 13-8 18c-5 5-11 8-18 8c0 0-153 0-153 0c-7 0-13-3-18-8c-5-5-8-11-8-18c0-7 2-13 7-18c5-5 11-8 19-8c0 0 153 0 153 0m0 103c8 0 14 2 19 7c4 6 7 12 7 18c0 7-3 13-8 18c-5 5-11 8-18 8c0 0-153 0-153 0c-7 0-13-3-18-8c-5-5-8-11-8-18c0-6 2-12 7-18c5-5 11-7 19-7c0 0 153 0 153 0m318-103c10 0 15 9 15 26c0 17-5 26-15 26c0 0-87 0-87 0c0 0 0 87 0 87c0 10-9 15-26 15c-17 0-26-5-26-15c0 0 0-87 0-87c0 0-84 0-84 0c-10 0-15-9-15-26c0-17 5-26 15-26c0 0 84 0 84 0c0 0 0-87 0-87c0-10 9-15 26-15c17 0 26 5 26 15c0 0 0 87 0 87c0 0 87 0 87 0m-318-102c8 0 14 3 19 8c4 5 7 11 7 18c0 6-3 12-8 18c-5 5-11 7-18 7c0 0-153 0-153 0c-7 0-13-2-18-7c-5-6-8-12-8-18c0-7 2-13 7-18c5-5 11-8 19-8c0 0 153 0 153 0"/>
    </symbol>

    <symbol id="icon-select-all" viewBox="0 0 512 512">
      <path d="m77 77l409 0 0 409-409 0z m25 25l0 359 359 0 0-359z m308-25l0-77-410 0 0 410 77 0 0-26-51 0 0-358 358 0 0 51z m-42 115l-125 125-54-54-40 40 94 94 165-165z"/>
    </symbol>

    <symbol id="icon-clear-all" viewBox="0 0 512 512">
      <path d="m26 282l0-52-26 0 0 52z m0 51l0 51 51 0 0 26-77 0 0-77z m0-154l0-51-26 0 0 51z m0-102l0-51 51 0 0-26 51 0 0 26 51 0 0-26 51 0 0 26 52 0 0-26 51 0 0 26 51 0 0 51 26 0 0-77-410 0 0 77z m328 96l36 36-181 181-36-36z m-181 36l36-36 181 181-36 36z m-96-132l409 0 0 409-409 0z m25 25l0 359 359 0 0-359z"/>
    </symbol>

    <symbol id="icon-frowny-face" viewBox="0 0 512 512">
      <path d="m131 56c12 0 21 3 27 8 7 6 10 14 10 24 0 11-3 19-10 25-6 6-15 9-27 9-12 0-21-3-27-9-7-6-10-14-10-25 0-9 3-17 9-23 5-6 15-9 28-9z m239 0c25 0 37 11 37 32 0 22-12 34-37 34-11 0-20-3-27-9-6-6-9-14-9-25 0-9 3-17 8-23 6-6 15-9 28-9z m-116 273c48 0 93 7 135 21 42 14 78 35 110 61l0 44c-35-26-74-46-115-59-42-13-85-19-129-19-44 0-86 6-127 20-42 13-80 32-114 57l0-43c31-27 67-47 108-61 41-14 85-21 132-21z"/>
    </symbol>

    <symbol id="icon-calc-3" viewBox="0 0 512 512">
      <path d="m482 257c0 21-3 42-9 62l-43 0c7-20 11-40 11-62 0-102-83-184-185-184-35 0-68 9-96 26l39 56-144 0 44-144 38 55c35-22 75-34 119-34 125 0 226 100 226 225z m-131 158c-27 17-60 27-95 27-102 0-185-83-185-185 0-22 4-42 11-61l-43 0c-6 19-9 40-9 61 0 125 101 226 226 226 44 0 84-13 119-35l38 55 44-143-144 0z m-156-191c0 10 1 18 3 23 2 5 5 7 9 7 9 0 14-10 14-30 0-20-5-30-14-30-4 0-7 2-9 7-2 5-3 13-3 23z m46 0c0 16-3 27-9 35-5 8-14 12-25 12-10 0-18-4-24-12-6-8-8-20-8-35 0-31 11-47 32-47 11 0 19 4 25 12 6 8 9 20 9 35z m51 60c0 10 1 18 3 23 2 5 6 7 10 7 9 0 13-10 13-30 0-20-4-30-13-30-4 0-8 2-10 7-2 5-3 13-3 23z m46 0c0 16-2 27-8 35-6 8-14 12-25 12-10 0-18-4-24-12-6-8-9-20-9-35 0-31 11-47 33-47 11 0 19 4 25 12 5 8 8 20 8 35z m-30-105l-83 150-20 0 83-150z"/>
    </symbol>

    <symbol id="icon-research" viewBox="0 0 512 512">
      <path d="m499 60c5-7 8-6 8 2c0 0 0 394 0 394c0 0-494 0-494 0c-4 0-6-2-7-4c-1-2-1-5 2-9c0 0 118-147 118-147c7-8 14-8 20-1c0 0 38 34 38 34c4 2 7 4 11 3c4 0 7-2 9-5c0 0 81-122 81-122c5-9 12-10 19-2c0 0 57 53 57 53c7 7 14 6 20-2c0 0 118-194 118-194"/>
    </symbol>

    <symbol id="icon-proposals" viewBox="0 0 512 512">
      <path d="m233 268c0 0 0 51 0 51c0 0-233 0-233 0c3-77 4-126 5-149c1-37 19-55 51-55c0 0 82 0 82 0c6-9 12-21 19-35c7-14 11-21 12-23c5-9 9-14 12-16c3-2 9-3 19-3c0 0 113 0 113 0c9 0 15 1 19 3c3 3 7 8 11 16c6 11 16 30 31 58c0 0 82 0 82 0c32 0 50 18 51 55c0 0 5 149 5 149c0 0-232 0-232 0c0 0 0-51 0-51c0 0-47 0-47 0m-37-181c0 0-15 28-15 28c0 0 150 0 150 0c0 0-15-28-15-28c-4-9-12-13-21-13c0 0-78 0-78 0c-9 0-17 4-21 13m84 309c0 0 0-51 0-51c0 0 220 0 220 0c-2 30-4 58-5 85c-2 29-18 43-46 43c0 0-384 0-384 0c-31 0-47-14-47-43c0 0-5-85-5-85c0 0 220 0 220 0c0 0 0 51 0 51c0 0 47 0 47 0"/>
    </symbol>

    <symbol id="icon-upload" viewBox="0 0 512 512">
      <path d="m256 38c0 0 133 125 133 125c0 0-84 0-84 0c0 0 0 131 0 131c0 0-97 0-97 0c0 0 0-131 0-131c0 0-85 0-85 0c0 0 133-125 133-125m239 296c7 3 11 9 14 16c3 8 4 15 2 21c0 0-14 79-14 79c-2 6-6 12-12 16c-6 5-13 7-20 7c0 0-418 0-418 0c-8 0-14-2-21-7c-6-4-9-10-11-16c0 0-14-79-14-79c-4-17 2-29 16-37c0 0 81-55 81-55c0 0 50 0 50 0c0 0-87 66-87 66c0 0 91 0 91 0c3 0 5 1 7 4c0 0 20 57 20 57c0 0 154 0 154 0c0 0 20-57 20-57c3-3 5-4 6-4c0 0 91 0 91 0c0 0-87-66-87-66c0 0 51 0 51 0c0 0 81 55 81 55"/>
    </symbol>

    <symbol id="icon-campaigns" viewBox="0 0 512 512">
      <path d="m442 179c19 47 31 91 34 132c3 41-4 65-20 72c-10 4-20 4-31-2c-12-5-23-12-34-20c-11-9-27-16-50-21c-23-5-49-7-77-4c-9 1-16 4-21 10c-5 5-6 11-3 19c7 19 15 37 23 55c2 3 6 7 13 11c7 4 11 8 12 10c5 12 1 20-11 24c-17 7-35 14-53 20c-10 4-19-3-27-21c-11-26-21-49-30-68c-2-4-8-7-17-8c-10-2-18-7-24-16c-10 3-17 6-19 7c-12 4-25 2-38-6c-14-8-23-19-28-31c-5-11-6-24-2-40c3-16 11-27 22-32c43-17 79-36 109-55c29-19 51-37 63-53c13-16 23-31 30-47c8-15 12-28 13-40c1-11 4-21 8-30c4-9 10-15 18-18c17-7 39 5 67 35c28 31 52 70 73 117m-15 154c3-2 5-8 5-20c1-11-1-28-5-50c-5-22-12-44-21-65c-10-23-21-44-35-63c-13-20-24-34-34-43c-9-10-16-13-18-12c-3 1-5 8-5 21c-1 13 1 31 5 54c4 23 11 46 20 68c10 23 21 43 35 61c14 18 25 31 35 39c9 8 16 11 18 10"/>
    </symbol>

    <symbol id="icon-lock" viewBox="0 0 512 512">
      <path d="m183 219l146 0l0-54c0-21-7-38-21-52c-15-14-32-22-52-22c-20 0-37 8-52 22c-14 14-21 31-21 52z m238 28l0 164c0 8-3 15-8 20c-6 5-12 8-20 8l-274 0c-8 0-14-3-20-8c-5-5-8-12-8-20l0-164c0-8 3-14 8-20c6-5 12-8 20-8l9 0l0-54c0-35 13-66 38-91c25-25 55-37 90-37c35 0 65 12 90 37c25 25 38 56 38 91l0 54l9 0c8 0 14 3 20 8c5 6 8 12 8 20z"/>
    </symbol>

    <symbol id="icon-unlock" viewBox="0 0 512 512">
      <path d="m494 165l0 73c0 5-2 9-6 13c-3 3-8 5-13 5l-18 0c-5 0-9-2-13-5c-3-4-5-8-5-13l0-73c0-21-7-38-22-52c-14-14-31-22-51-22c-20 0-38 8-52 22c-14 14-21 31-21 52l0 54l27 0c8 0 14 3 19 8c6 6 8 12 8 20l0 164c0 8-2 15-8 20c-5 5-11 8-19 8l-274 0c-8 0-14-3-20-8c-5-5-8-12-8-20l0-164c0-8 3-14 8-20c6-5 12-8 20-8l192 0l0-54c0-36 12-66 37-91c25-25 55-37 91-37c35 0 65 12 90 37c25 25 38 55 38 91z"/>
    </symbol>

    <symbol id="icon-history" viewBox="0 0 512 512">
      <path d="m288 46c58 0 107 21 148 62c40 40 61 90 61 148c0 58-21 108-61 148c-41 41-90 62-148 62c-47 0-90-15-129-45c0 0 36-39 36-39c28 20 59 31 93 31c43 0 80-16 110-46c31-31 46-68 46-111c0-44-15-81-46-112c-30-30-67-46-110-46c-43 0-79 15-109 44c-31 30-47 66-48 108c0 0 73 0 73 0c0 0-94 105-94 105c0 0-95-105-95-105c0 0 64 0 64 0c1-57 22-105 63-145c40-39 89-59 146-59m-19 97c0 0 36 0 36 0c0 0 0 105 0 105c0 0 67 66 67 66c0 0-26 26-26 26c0 0-77-77-77-77c0 0 0-120 0-120"/>
    </symbol>

    <symbol id="icon-info-circled" viewBox="0 0 512 512">
      <path d="m253 20c65 0 120 22 167 67c46 45 70 100 72 165c0 65-22 121-68 167c-45 47-100 71-165 73c-65 0-121-22-167-68c-47-45-71-100-72-165c-1-65 21-121 67-167c46-47 101-71 166-72m27 78c-15 0-26 4-34 13c-8 8-12 16-12 25c0 10 2 17 8 23c6 5 14 8 25 8c13 0 24-4 31-11c8-8 12-17 12-28c0-20-10-30-30-30m-62 304c10 0 25-4 43-13c19-9 37-22 54-40c0 0-9-12-9-12c-16 12-28 18-37 18c-4 0-5-6-2-19c0 0 22-82 22-82c9-33 5-49-11-49c-11 0-26 5-46 15c-20 10-40 22-59 38c0 0 8 13 8 13c18-11 31-17 38-17c4 0 4 6 0 17c0 0-18 78-18 78c-9 36-3 53 17 53"/>
    </symbol>

    <symbol id="icon-login" viewBox="0 0 512 512">
      <path d="m435 26c15 0 27 5 37 14c9 10 14 22 14 37c0 0 0 358 0 358c0 14-5 26-14 36c-10 10-22 15-37 15c0 0-230 0-230 0c-14 0-26-5-36-15c-9-10-14-22-14-36c0 0 0-51 0-51c0 0 50 0 50 0c0 0 0 51 0 51c0 0 230 0 230 0c0 0 0-358 0-358c0 0-230 0-230 0c0 0 0 77 0 77c0 0-50 0-50 0c0 0 0-77 0-77c0-15 5-27 14-37c10-9 22-14 36-14c0 0 230 0 230 0m-179 343c0 0 0-62 0-62c0 0-230 0-230 0c0 0 0-77 0-77c0 0 230 0 230 0c0 0 0-61 0-61c0 0 102 99 102 99c0 0-102 101-102 101"/>
    </symbol>

    <symbol id="icon-indexing" viewBox="0 0 512 512">
      <path d="m352 167l20 0 0 239-20 0z m111 0l20 0 0 239-20 0z m-91 219l91 0 0 20-91 0z m-20-279l131 0 0 70-131 0z m-161 60l20 0 0 239-20 0z m111 0l20 0 0 239-20 0z m-91 219l91 0 0 20-91 0z m-20-279l131 0 0 70-131 0z m-161 60l20 0 0 239-20 0z m111 0l20 0 0 239-20 0z m-91 219l91 0 0 20-91 0z m-20-279l131 0 0 70-131 0z"/>
    </symbol>

    <symbol id="icon-budget" viewBox="0 0 512 512">
      <path d="m461 77c14 0 26 5 36 15c10 10 15 22 15 36c0 0 0 256 0 256c0 14-5 26-15 36c-10 10-22 15-36 15c0 0-410 0-410 0c-13 0-25-5-36-15c-10-10-15-22-15-36c0 0 0-256 0-256c0-14 5-26 15-36c11-10 23-15 36-15c0 0 410 0 410 0m0 307c0 0 0-154 0-154c0 0-410 0-410 0c0 0 0 154 0 154c0 0 410 0 410 0m0-230c0 0 0-26 0-26c0 0-410 0-410 0c0 0 0 26 0 26c0 0 410 0 410 0m-359 131c0 0 16 0 16 0c0 0 0 15 0 15c0 0-16 0-16 0c0 0 0-15 0-15m93 30c0 0 15 0 15 0c0 0 0-15 0-15c0 0 15 0 15 0c0 0 0-15 0-15c0 0 31 0 31 0c0 0 0 15 0 15c0 0-15 0-15 0c0 0 0 15 0 15c0 0-16 0-16 0c0 0 0 16 0 16c0 0-30 0-30 0c0 0 0-16 0-16m61 16c0 0-15 0-15 0c0 0 0-16 0-16c0 0 15 0 15 0c0 0 0 16 0 16m-77 0c0 0-31 0-31 0c0 0 0-16 0-16c0 0 31 0 31 0c0 0 0 16 0 16m16-31c0 0 0 15 0 15c0 0-16 0-16 0c0 0 0-30 0-30c0 0 31 0 31 0c0 0 0 15 0 15c0 0-15 0-15 0m-62 15c0 0 0 16 0 16c0 0-31 0-31 0c0 0 0-16 0-16c0 0 16 0 16 0c0 0 0-15 0-15c0 0 15 0 15 0c0 0 0-15 0-15c0 0 31 0 31 0c0 0 0 15 0 15c0 0-16 0-16 0c0 0 0 15 0 15c0 0-15 0-15 0"/>
    </symbol>

    <symbol id="icon-unlock2" viewBox="0 0 512 512">
      <path d="m393 219c8 0 14 3 20 8c5 6 8 12 8 20l0 164c0 8-3 15-8 20c-6 5-12 8-20 8l-274 0c-8 0-14-3-20-8c-5-5-8-12-8-20l0-164c0-8 3-14 8-20c6-5 12-8 20-8l9 0l0-91c0-35 13-65 38-90c25-25 55-38 90-38c35 0 65 13 90 38c25 25 38 55 38 90c0 5-2 9-5 13c-4 3-8 5-13 5l-19 0c-5 0-9-2-12-5c-4-4-6-8-6-13c0-20-7-37-21-52c-15-14-32-21-52-21c-20 0-37 7-52 21c-14 15-21 32-21 52l0 91z"/>
    </symbol>

    <symbol id="icon-doc-text" viewBox="0 0 512 512">
      <path d="m185 278c0 0 0-47 0-47c0 0 144 0 144 0c0 0 0 47 0 47c0 0-144 0-144 0m199-252c14 0 26 5 36 14c10 10 15 22 15 37c0 0 0 358 0 358c0 14-5 26-15 36c-10 10-22 15-36 15c0 0-256 0-256 0c-14 0-26-5-36-15c-10-10-15-22-15-36c0 0 0-358 0-358c0-15 5-27 15-37c10-9 22-14 36-14c0 0 256 0 256 0m0 409c0 0 0-358 0-358c0 0-256 0-256 0c0 0 0 358 0 358c0 0 256 0 256 0m-56-303c0 0 0 45 0 45c0 0-144 0-144 0c0 0 0-45 0-45c0 0 144 0 144 0m0 201c0 0 0 45 0 45c0 0-144 0-144 0c0 0 0-45 0-45c0 0 144 0 144 0"/>
    </symbol>

    <symbol id="icon-arrow" viewBox="0 0 512 512">
      <path d="m427 235l-260 0 119-120-30-30-171 171 171 171 30-30-119-120 260 0z"/>
    </symbol>

    <symbol id="icon-chat" viewBox="0 0 512 512">
      <path d="m148 312c0 0 180 0 180 0c0 0 1 0 3-1c0 0 2 0 2 0c0 0 0 47 0 47c0 14-5 26-15 36c-10 10-22 16-36 16c0 0-128 0-128 0c0 0-77 76-77 76c0 0 0-76 0-76c0 0-26 0-26 0c-13 0-25-6-36-16c-10-10-15-22-15-36c0 0 0-153 0-153c0-15 5-27 15-37c11-9 23-14 36-14c0 0 97 0 97 0c0 0 0 158 0 158m313-286c14 0 26 5 36 14c10 10 15 22 15 37c0 0 0 153 0 153c0 14-5 26-15 36c-10 10-22 16-36 16c0 0-26 0-26 0c0 0 0 76 0 76c0 0-77-76-77-76c0 0-179 0-179 0c0 0 0-205 0-205c0-15 5-27 16-37c10-9 22-14 35-14c0 0 231 0 231 0"/>
    </symbol>

    <symbol id="icon-book" viewBox="0 0 512 512">
      <path d="m426 131c6 3 9 8 9 14c0 0 0 288 0 288c0 5-2 9-6 13c-4 4-9 6-14 6c-16 0-24-7-24-19c0 0 0-267 0-267c0-4-2-7-6-9c0 0-207-111-207-111c-11-3-22-2-35 5c-15 7-24 15-28 23c0 0 209 116 209 116c6 3 9 8 9 15c0 0 0 281 0 281c0 8-3 13-9 15c-2 1-5 2-9 2c-4 0-8-1-10-2c-3-2-37-24-103-65c-66-42-103-64-109-67c-9-7-13-12-13-18c0 0-3-268-3-268c0-10 2-18 7-27c10-15 27-29 52-39c25-11 45-12 60-5c0 0 230 119 230 119"/>
    </symbol>

    <symbol id="icon-code" viewBox="0 0 512 512">
      <path d="m195 110c5 4 8 10 8 16c0 6-3 11-8 15c0 0-126 115-126 115c0 0 126 116 126 116c5 4 8 9 8 15c0 6-3 12-8 16c-11 11-21 11-31 0c0 0-164-147-164-147c0 0 164-146 164-146c10-11 20-11 31 0m154 0c0 0 163 146 163 146c0 0-163 147-163 147c-11 11-21 11-32 0c-10-10-10-21 0-31c0 0 127-116 127-116c0 0-127-115-127-115c-10-10-10-21 0-31c11-11 21-11 32 0"/>
    </symbol>

    <symbol id="icon-lifebuoy" viewBox="0 0 512 512">
      <path d="m253 20c65 0 120 22 167 67c46 45 70 100 72 165c0 65-22 121-68 167c-45 47-100 71-165 73c-65 0-121-22-167-68c-47-45-71-100-72-165c-1-65 21-121 67-167c46-47 101-71 166-72m0 31c-32 0-63 8-91 23c0 0 32 53 32 53c19-10 39-14 62-14c23 0 43 4 62 14c0 0 32-53 32-53c-30-16-62-23-97-23m-126 267c-10-20-14-41-14-62c0-22 4-43 14-63c0 0-52-32-52-32c-16 30-24 62-24 97c1 33 9 64 24 92c0 0 52-32 52-32m132 143c34-2 64-9 91-24c0 0-32-53-32-53c-20 10-41 15-62 15c-21 0-42-5-62-15c0 0-32 53-32 53c29 16 62 24 97 24m-3-92c31 0 58-11 80-34c22-22 33-48 33-79c0-31-11-58-33-80c-22-22-49-33-80-33c-31 0-58 11-80 33c-22 22-33 49-33 80c0 31 11 57 33 79c22 23 49 34 80 34m129-51c0 0 53 32 53 32c16-33 23-65 23-97c0-33-8-64-23-92c0 0-53 32-53 32c10 20 14 41 14 63c0 21-4 42-14 62"/>
    </symbol>

    <symbol id="icon-close" viewBox="0 0 512 512">
      <path d="m405 137l-30-30-119 119-119-119-30 30 119 119-119 119 30 30 119-119 119 119 30-30-119-119z"/>
    </symbol>

    <symbol id="icon-drag" viewBox="0 0 512 512">
      <path d="m230 154c0 14-11 25-25 25-14 0-26-11-26-25 0-15 12-26 26-26 14 0 25 11 25 26z m103 0c0 14-12 25-26 25-14 0-25-11-25-25 0-15 11-26 25-26 14 0 26 11 26 26z m0 102c0 14-12 26-26 26-14 0-25-12-25-26 0-14 11-26 25-26 14 0 26 12 26 26z m0 102c0 15-12 26-26 26-14 0-25-11-25-26 0-14 11-25 25-25 14 0 26 11 26 25z m-103-102c0 14-11 26-25 26-14 0-26-12-26-26 0-14 12-26 26-26 14 0 25 12 25 26z m0 102c0 15-11 26-25 26-14 0-26-11-26-26 0-14 12-25 26-25 14 0 25 11 25 25z"/>
    </symbol>

    <symbol id="icon-merge" viewBox="0 0 512 512">
      <path d="m420 102c0 28-13 46-38 57c-2 20-7 37-14 51c-8 15-18 27-32 36c-13 9-25 15-34 19c-10 4-23 9-39 14c-14 4-25 8-32 11c-7 3-15 7-24 12c-9 6-16 12-20 21c-4 8-6 18-8 30c24 11 36 29 36 57c0 17-6 31-18 43c-12 12-26 18-43 18c-17 0-32-6-44-18c-12-12-18-26-18-43c0-27 12-46 37-58c0 0 0-193 0-193c-25-12-37-31-37-57c0-17 6-31 18-43c12-12 27-18 44-18c17 0 31 6 43 18c12 12 18 26 18 43c0 26-12 45-37 57c0 0 0 104 0 104c14-10 37-20 71-31c20-6 34-11 43-14c9-4 17-11 26-21c8-11 13-24 15-39c-24-11-36-30-36-56c0-17 6-31 18-43c12-12 26-18 43-18c17 0 32 6 44 18c12 12 18 26 18 43m-301 0c0 10 3 18 10 25c7 7 15 10 25 10c9 0 18-3 25-10c7-7 10-15 10-25c0-10-3-18-10-25c-7-7-16-10-25-10c-10 0-18 3-25 10c-7 7-10 15-10 25m35 342c9 0 18-3 25-10c7-7 10-15 10-24c0-11-3-19-10-26c-7-7-16-10-25-10c-10 0-18 3-25 10c-7 7-10 15-10 26c0 9 3 17 10 24c7 7 15 10 25 10m204-307c10 0 18-3 25-10c8-7 11-15 11-25c0-10-3-18-11-25c-7-7-15-10-25-10c-9 0-17 3-24 10c-7 7-10 15-10 25c0 10 3 18 10 25c7 7 15 10 24 10"/>
    </symbol>

    <symbol id="icon-sync" viewBox="0 0 512 512">
      <path d="m141 364c0 0 60-60 60-60c0 0 0 150 0 150c0 0-142-9-142-9c0 0 45-44 45-44c-39-41-59-91-58-148c1-57 21-107 62-148c34-34 75-53 122-59c0 0 2 52 2 52c-34 6-63 21-88 45c-30 30-45 67-46 109c0 43 14 80 43 112m170-307c0 0 142 9 142 9c0 0-45 44-45 44c39 41 59 91 58 148c-1 57-21 107-62 148c-32 33-73 53-122 60c0 0-1-53-1-53c33-6 62-21 87-45c30-30 45-67 46-109c0-43-14-80-43-112c0 0-59 60-59 60c0 0-1-150-1-150"/>
    </symbol>

    <symbol id="icon-warning" viewBox="0 0 512 512">
      <path d="m235 320l42 0 0 43-42 0z m0-171l42 0 0 128-42 0z m21-106c-118 0-213 95-213 213 0 118 95 213 213 213 118 0 213-95 213-213 0-118-95-213-213-213z m0 384c-94 0-171-77-171-171 0-94 77-171 171-171 94 0 171 77 171 171 0 94-77 171-171 171z"/>
    </symbol>

    <symbol id="icon-moving" viewBox="0 0 24 24" >
      <path d="M19.71 9.71L22 12V6h-6l2.29 2.29-4.17 4.17a.996.996 0 0 1-1.41 0l-1.17-1.17a3 3 0 0 0-4.24 0L2 16.59 3.41 18l5.29-5.29a.996.996 0 0 1 1.41 0l1.17 1.17a3 3 0 0 0 4.24 0l4.19-4.17z"/>
    </symbol>

    <!-- added manually from figma -->
    <symbol id="icon-modern-calendar" viewBox="0 0 16 18">
      <path d="M5.5 8.16669H3.83333V9.83335H5.5V8.16669ZM8.83333 8.16669H7.16667V9.83335H8.83333V8.16669ZM12.1667 8.16669H10.5V9.83335H12.1667V8.16669ZM13.8333 2.33335H13V0.666687H11.3333V2.33335H4.66667V0.666687H3V2.33335H2.16667C1.24167 2.33335 0.508333 3.08335 0.508333 4.00002L0.5 15.6667C0.5 16.5834 1.24167 17.3334 2.16667 17.3334H13.8333C14.75 17.3334 15.5 16.5834 15.5 15.6667V4.00002C15.5 3.08335 14.75 2.33335 13.8333 2.33335ZM13.8333 15.6667H2.16667V6.50002H13.8333V15.6667Z" fill="#2E2D37"/>
    </symbol>
</svg>
