<svg  xmlns="http://www.w3.org/2000/svg" xmlns:xlink="http://www.w3.org/1999/xlink"><symbol  viewBox="0 0 25 24" id="add-chart" xmlns="http://www.w3.org/2000/svg"><path d="M19.5 19h-14V5h6V3h-6c-1.1 0-2 .9-2 2v14c0 1.1.9 2 2 2h14c1.1 0 2-.9 2-2v-6h-2v6zm-4-6v4h2v-4h-2zm-4 4h2V9h-2v8zm-2 0v-5h-2v5h2z" /><path d="M20.889 2L18.5 4.389l-.343-.343L16.111 2 14.5 3.611l2.046 2.046.343.343L14.5 8.389 16.111 10 18.5 7.623 20.889 10 22.5 8.389 20.123 6 22.5 3.611 20.889 2z" /></symbol><symbol  viewBox="0 0 24 24" id="apps" xmlns="http://www.w3.org/2000/svg"><path d="M4 8h4V4H4v4zm6 12h4v-4h-4v4zm-6 0h4v-4H4v4zm0-6h4v-4H4v4zm6 0h4v-4h-4v4zm6-10v4h4V4h-4zm-6 4h4V4h-4v4zm6 6h4v-4h-4v4zm0 6h4v-4h-4v4z" /></symbol><symbol  viewBox="0 0 24 24" id="area-chart" xmlns="http://www.w3.org/2000/svg"><path fill-rule="evenodd" clip-rule="evenodd" d="M21.098 4.184l-4.583 7.466a.464.464 0 01-.74.1l-2.218-2.075a.484.484 0 00-.758.09l-3.112 4.693a.492.492 0 01-.763.094l-1.45-1.322a.549.549 0 00-.806.063l-4.563 5.691c-.203.253-.104.461.22.461h19.08V4.271c.002-.324-.138-.364-.308-.087z" /></symbol><symbol  viewBox="0 0 24 24" id="arrow_back" xmlns="http://www.w3.org/2000/svg"><path d="M20 11H7.83l5.59-5.59L12 4l-8 8 8 8 1.41-1.41L7.83 13H20v-2z" /></symbol><symbol  viewBox="0 0 24 24" id="arrow_downward" xmlns="http://www.w3.org/2000/svg"><path d="M20 12l-1.41-1.41L13 16.17V4h-2v12.17l-5.58-5.59L4 12l8 8 8-8z" /></symbol><symbol  viewBox="0 0 24 24" id="arrow_forward" xmlns="http://www.w3.org/2000/svg"><path d="M12 4l-1.41 1.41L16.17 11H4v2h12.17l-5.58 5.59L12 20l8-8-8-8z" /></symbol><symbol  viewBox="0 0 24 24" id="arrow_upward" xmlns="http://www.w3.org/2000/svg"><path d="M4 12l1.41 1.41L11 7.83V20h2V7.83l5.58 5.59L20 12l-8-8-8 8z" /></symbol><symbol  viewBox="0 0 24 24" id="bar-chart" xmlns="http://www.w3.org/2000/svg"><path d="M15 6v3H5V6h10zm5 0v3h-4V6h4zM9 16v3H5v-3h4zm3 0v3h-2v-3h2zm0-5v3H5v-3h7zm4 0v3h-3v-3h3z" /></symbol><symbol  viewBox="0 0 20 20" id="book" xmlns="http://www.w3.org/2000/svg"><path fill-rule="evenodd" clip-rule="evenodd" d="M17.002 5.103L8.092.51c-1.22-.643-3.626.599-4.317 1.692-.31.488-.286.84-.286 1.04l.11 10.372c.007.22.284.517.522.663.494.304 7.979 4.977 8.19 5.109a.725.725 0 00.383.104.743.743 0 00.33-.076.626.626 0 00.365-.56V7.964a.627.627 0 00-.348-.55l-8.1-4.521c.093-.178.453-.555 1.115-.901.698-.365 1.22-.228 1.34-.181 0 0 7.772 4.159 8.01 4.283.238.124.24.142.24.354v10.336c0 .516.525.727.909.727s.793-.376.793-.727V5.653a.621.621 0 00-.346-.55z" /><mask id="aia" style="mask-type:alpha" maskUnits="userSpaceOnUse" x="3" y="0" width="15" height="20"><path fill-rule="evenodd" clip-rule="evenodd" d="M17.002 5.103L8.092.51c-1.22-.643-3.626.599-4.317 1.692-.31.488-.286.84-.286 1.04l.11 10.372c.007.22.284.517.522.663.494.304 7.979 4.977 8.19 5.109a.725.725 0 00.383.104.743.743 0 00.33-.076.626.626 0 00.365-.56V7.964a.627.627 0 00-.348-.55l-8.1-4.521c.093-.178.453-.555 1.115-.901.698-.365 1.22-.228 1.34-.181 0 0 7.772 4.159 8.01 4.283.238.124.24.142.24.354v10.336c0 .516.525.727.909.727s.793-.376.793-.727V5.653a.621.621 0 00-.346-.55z" /></mask></symbol><symbol  viewBox="0 0 24 24" id="bookmark" xmlns="http://www.w3.org/2000/svg"><path d="M17 3H7c-1.1 0-2 .9-2 2v16l7-3 7 3V5c0-1.1-.9-2-2-2z" /></symbol><symbol  viewBox="0 0 20 20" id="breakdown" xmlns="http://www.w3.org/2000/svg"><path fill-rule="evenodd" clip-rule="evenodd" d="M17.854 14.701v-2.273c0-1.373-.91-3.416-3.416-3.416h-1.98c-1.397 0-1.528-.687-1.534-1.04V5.203a2.376 2.376 0 10-1.88 0v2.769c0 .257-.074 1.04-1.535 1.04h-1.98c-2.506 0-3.416 2.043-3.416 3.416v2.273a2.376 2.376 0 101.88 0v-2.273c0-.257.074-1.535 1.534-1.535h1.98c.601 0 1.108-.091 1.535-.245v4.054a2.376 2.376 0 101.88 0v-4.054c.427.154.934.245 1.534.245h1.98c1.398 0 1.528 1.182 1.535 1.535v2.273a2.376 2.376 0 103.316 2.182 2.367 2.367 0 00-1.433-2.182zM4.423 16.883a1.371 1.371 0 11-2.742 0 1.371 1.371 0 012.742 0zM8.612 3.021a1.37 1.37 0 112.741 0 1.37 1.37 0 01-2.741 0zm2.742 13.862a1.371 1.371 0 11-2.742 0 1.371 1.371 0 012.742 0zm5.56 1.371a1.371 1.371 0 110-2.742 1.371 1.371 0 010 2.742z" /></symbol><symbol  viewBox="0 0 24 24" id="cached" xmlns="http://www.w3.org/2000/svg"><path d="M19 8l-4 4h3c0 3.31-2.69 6-6 6a5.87 5.87 0 01-2.8-.7l-1.46 1.46A7.93 7.93 0 0012 20c4.42 0 8-3.58 8-8h3l-4-4zM6 12c0-3.31 2.69-6 6-6 1.01 0 1.97.25 2.8.7l1.46-1.46A7.93 7.93 0 0012 4c-4.42 0-8 3.58-8 8H1l4 4 4-4H6z" /></symbol><symbol  viewBox="0 0 24 24" id="cancel" xmlns="http://www.w3.org/2000/svg"><path d="M12 3c-4.977 0-9 4.023-9 9s4.023 9 9 9 9-4.023 9-9-4.023-9-9-9zm4.5 12.231L15.231 16.5 12 13.269 8.769 16.5 7.5 15.231 10.731 12 7.5 8.769 8.769 7.5 12 10.731 15.231 7.5 16.5 8.769 13.269 12l3.231 3.231z" /></symbol><symbol  viewBox="0 0 21 20" id="chat" xmlns="http://www.w3.org/2000/svg"><path fill-rule="evenodd" clip-rule="evenodd" d="M6.221 12.486V6.348H2.459c-1.089 0-1.98.891-1.98 1.98v5.94c0 1.089.892 1.98 1.98 1.98h.99v2.97l2.97-2.97h4.951c1.089 0 1.98-.891 1.98-1.98v-1.802a.992.992 0 01-.198.02H6.221zm12.08-11.089H9.39c-1.089 0-1.98.891-1.98 1.98v7.921h6.931l2.971 2.97v-2.97h.99c1.089 0 1.98-.892 1.98-1.98v-5.94a1.988 1.988 0 00-1.981-1.981z" /></symbol><symbol  viewBox="0 0 24 24" id="checkmark" xmlns="http://www.w3.org/2000/svg"><path fill-rule="evenodd" clip-rule="evenodd" d="M18.213 5l-8.671 8.523L5.785 9.83 3 12.57 9.542 19 21 7.737 18.213 5z" /></symbol><symbol  viewBox="0 0 24 24" id="chevron_left" xmlns="http://www.w3.org/2000/svg"><path d="M15.41 7.41L14 6l-6 6 6 6 1.41-1.41L10.83 12l4.58-4.59z" /></symbol><symbol  viewBox="0 0 24 24" id="chevron_right" xmlns="http://www.w3.org/2000/svg"><path d="M10 6L8.59 7.41 13.17 12l-4.58 4.59L10 18l6-6-6-6z" /></symbol><symbol  viewBox="0 0 24 24" id="close" xmlns="http://www.w3.org/2000/svg"><path d="M19 6.41L17.59 5 12 10.59 6.41 5 5 6.41 10.59 12 5 17.59 6.41 19 12 13.41 17.59 19 19 17.59 13.41 12 19 6.41z" /></symbol><symbol  viewBox="0 0 21 20" id="code" xmlns="http://www.w3.org/2000/svg"><path fill-rule="evenodd" clip-rule="evenodd" d="M8.035 4.04c-.363-.342-.854-.342-1.219 0L.498 9.725l6.318 5.684c.364.342.855.342 1.22 0a.84.84 0 000-1.24L3.13 9.726l4.905-4.444a.843.843 0 000-1.242zm5.947 0c-.364-.342-.854-.342-1.219 0-.364.343-.344.898.02 1.24l4.886 4.444-4.886 4.443c-.363.342-.384.897-.02 1.24.364.342.854.342 1.219 0L20.3 9.723 13.982 4.04z" /></symbol><symbol  viewBox="0 0 24 24" id="column-chart" xmlns="http://www.w3.org/2000/svg"><path d="M5 9.2h3V19H5V9.2zM10.6 5h2.8v14h-2.8V5zm5.6 8H19v6h-2.8v-6z" /></symbol><symbol  viewBox="0 0 24 24" id="columns" xmlns="http://www.w3.org/2000/svg"><path d="M5.33 20H4c-1.1 0-2-.9-2-2V6c0-1.1.9-2 2-2h1.33c1.1 0 2 .9 2 2v12a2 2 0 01-2 2zM22 18V6c0-1.1-.9-2-2-2h-1.33c-1.1 0-2 .9-2 2v12c0 1.1.9 2 2 2H20a2 2 0 002-2zm-7.33 0V6c0-1.1-.9-2-2-2h-1.33c-1.1 0-2 .9-2 2v12c0 1.1.9 2 2 2h1.33c1.1 0 2-.9 2-2z" /></symbol><symbol  viewBox="0 0 24 24" id="copy" xmlns="http://www.w3.org/2000/svg"><path d="M16 1H4c-1.1 0-2 .9-2 2v14h2V3h12V1zm3 4H8c-1.1 0-2 .9-2 2v14c0 1.1.9 2 2 2h11c1.1 0 2-.9 2-2V7c0-1.1-.9-2-2-2zm0 16H8V7h11v14z" /></symbol><symbol  viewBox="0 0 24 24" id="dashboard" xmlns="http://www.w3.org/2000/svg"><path d="M3 13h8V3H3v10zm0 8h8v-6H3v6zm10 0h8V11h-8v10zm0-18v6h8V3h-8z" /></symbol><symbol  viewBox="0 0 24 24" id="datasource" xmlns="http://www.w3.org/2000/svg"><path d="M20 17.046v2.048C20 20.698 16.276 22 12 22c-4.275 0-8-1.302-8-2.906v-2.048c1.934 1.448 5.604 1.88 8 1.88 2.405 0 6.07-.436 8-1.88zm-8-2.841c-2.405 0-6.07-.436-8-1.88v2.028c0 1.605 3.725 2.906 8 2.906 4.276 0 8-1.302 8-2.906v-2.028c-1.934 1.448-5.604 1.88-8 1.88zM12 2C7.725 2 4 3.302 4 4.907s3.725 2.905 8 2.905c4.276 0 8-1.301 8-2.905C20 3.302 16.276 2 12 2zm0 7.48c-2.405 0-6.07-.437-8-1.88v2.033c0 1.605 3.725 2.905 8 2.905 4.276 0 8-1.301 8-2.905V7.599c-1.934 1.448-5.604 1.88-8 1.88z" /></symbol><symbol  viewBox="0 0 24 24" id="date_range" xmlns="http://www.w3.org/2000/svg"><path d="M9 11H7v2h2v-2zm4 0h-2v2h2v-2zm4 0h-2v2h2v-2zm2-7h-1V2h-2v2H8V2H6v2H5c-1.11 0-1.99.9-1.99 2L3 20a2 2 0 002 2h14c1.1 0 2-.9 2-2V6c0-1.1-.9-2-2-2zm0 16H5V9h14v11z" /></symbol><symbol  viewBox="0 0 24 24" id="download" xmlns="http://www.w3.org/2000/svg"><path d="M19 9h-4V3H9v6H5l7 7 7-7zM5 18v2h14v-2H5z" /></symbol><symbol  viewBox="0 0 24 24" id="drag_handle" xmlns="http://www.w3.org/2000/svg"><path d="M10.8 7.2a1.2 1.2 0 11-2.4 0 1.2 1.2 0 012.4 0zM15.6 7.2a1.2 1.2 0 11-2.4 0 1.2 1.2 0 012.4 0zM15.6 12a1.2 1.2 0 11-2.4 0 1.2 1.2 0 012.4 0zM15.6 16.8a1.2 1.2 0 11-2.4 0 1.2 1.2 0 012.4 0zM10.8 12a1.2 1.2 0 11-2.4 0 1.2 1.2 0 012.4 0zM10.8 16.8a1.2 1.2 0 11-2.4 0 1.2 1.2 0 012.4 0z" /></symbol><symbol  viewBox="0 0 20 20" id="edit" xmlns="http://www.w3.org/2000/svg"><path fill-rule="evenodd" clip-rule="evenodd" d="M5.59 16H2v-1.456h3.59V16zm2.1-4.106l2.934 3.142-3.883.942.948-4.084zM18 7.238l-6.457 6.914-3.024-3.238L14.976 4 18 7.238zm-2.984-1.625l-4.959 5.312.683.732L15.7 6.345l-.683-.732z" /></symbol><symbol  viewBox="0 0 24 24" id="error" xmlns="http://www.w3.org/2000/svg"><path d="M12 2C6.48 2 2 6.48 2 12s4.48 10 10 10 10-4.48 10-10S17.52 2 12 2zm1 15h-2v-2h2v2zm0-4h-2V7h2v6z" /></symbol><symbol  viewBox="0 0 24 24" id="expand_less" xmlns="http://www.w3.org/2000/svg"><path d="M12 8l-6 6 1.41 1.41L12 10.83l4.59 4.58L18 14l-6-6z" /></symbol><symbol  viewBox="0 0 24 24" id="expand_more" xmlns="http://www.w3.org/2000/svg"><path d="M16.59 8.59L12 13.17 7.41 8.59 6 10l6 6 6-6-1.41-1.41z" /></symbol><symbol  viewBox="0 0 24 24" id="filter" xmlns="http://www.w3.org/2000/svg"><path fill-rule="evenodd" clip-rule="evenodd" d="M17 9h-2V3h2v2h4v2h-4v2zM3 7V5h10v2H3zm0 12v-2h6v2H3zm10 2v-2h8v-2h-8v-2h-2v6h2zM7 11V9h2v6H7v-2H3v-2h4zm14 2v-2H11v2h10z" /></symbol><symbol  viewBox="0 0 20 20" id="help" xmlns="http://www.w3.org/2000/svg"><path fill-rule="evenodd" clip-rule="evenodd" d="M9.654.408a9.108 9.108 0 00-8.986 9.23 9.108 9.108 0 009.23 8.985 9.108 9.108 0 008.986-9.229A9.11 9.11 0 009.654.408zm.016 1.188a7.878 7.878 0 013.762.893l-1.226 2.043a5.532 5.532 0 00-2.43-.561c-.873 0-1.697.202-2.432.561L6.12 2.49a7.893 7.893 0 013.551-.894zM4.792 11.947L2.75 13.172a7.889 7.889 0 01-.894-3.55A7.89 7.89 0 012.75 5.86l2.043 1.226a5.532 5.532 0 00-.56 2.431c0 .871.201 1.696.56 2.43zm5.09 5.49a7.893 7.893 0 01-3.763-.893l1.226-2.043a5.528 5.528 0 002.43.561c.872 0 1.696-.202 2.43-.56l1.225 2.041a7.89 7.89 0 01-3.548.894zm-.107-3.564a4.356 4.356 0 110-8.713 4.356 4.356 0 010 8.713zm4.985-1.926a5.532 5.532 0 00.561-2.43c0-.873-.202-1.698-.56-2.432l2.041-1.225a7.884 7.884 0 01.894 3.55 7.893 7.893 0 01-.893 3.762l-2.043-1.225z" /></symbol><symbol  viewBox="0 0 24 24" id="help_outline" xmlns="http://www.w3.org/2000/svg"><path d="M11 18h2v-2h-2v2zm1-16C6.48 2 2 6.48 2 12s4.48 10 10 10 10-4.48 10-10S17.52 2 12 2zm0 18c-4.41 0-8-3.59-8-8s3.59-8 8-8 8 3.59 8 8-3.59 8-8 8zm0-14c-2.21 0-4 1.79-4 4h2c0-1.1.9-2 2-2s2 .9 2 2c0 2-3 1.75-3 5h2c0-2.25 3-2.5 3-5 0-2.21-1.79-4-4-4z" /></symbol><symbol  viewBox="0 0 24 24" id="history" xmlns="http://www.w3.org/2000/svg"><path d="M13 3a9 9 0 00-9 9H1l3.89 3.89.07.14L9 12H6c0-3.87 3.13-7 7-7s7 3.13 7 7-3.13 7-7 7c-1.93 0-3.68-.79-4.94-2.06l-1.42 1.42A8.954 8.954 0 0013 21a9 9 0 000-18zm-1 5v5l4.28 2.54.72-1.21-3.5-2.08V8H12z" /></symbol><symbol  viewBox="0 0 24 24" id="info" xmlns="http://www.w3.org/2000/svg"><path fill-rule="evenodd" clip-rule="evenodd" d="M11.866 2c-5.522.074-9.939 4.612-9.865 10.135.073 5.52 4.61 9.938 10.133 9.865 5.521-.075 9.939-4.612 9.865-10.134-.073-5.521-4.61-9.939-10.133-9.865zm1.109 3.333c1.018 0 1.317.59 1.317 1.265 0 .843-.675 1.622-1.825 1.622-.963 0-1.422-.485-1.396-1.285.001-.674.566-1.602 1.904-1.602zM10.368 18.25c-.693 0-1.203-.422-.716-2.276l.798-3.288c.138-.527.161-.738 0-.738-.209 0-1.111.365-1.644.723l-.347-.569c1.691-1.412 3.633-2.24 4.466-2.24.695 0 .81.823.464 2.086l-.913 3.458c-.161.61-.092.82.068.82.209 0 .892-.253 1.564-.78l.393.527c-1.644 1.644-3.438 2.277-4.133 2.277z" /></symbol><symbol  viewBox="0 0 24 24" id="info2" xmlns="http://www.w3.org/2000/svg"><path d="M12 2C6.48 2 2 6.48 2 12s4.48 10 10 10 10-4.48 10-10S17.52 2 12 2zm1 15h-2v-6h2v6zm0-8h-2V7h2v2z" /></symbol><symbol  viewBox="0 0 24 24" id="line-chart" xmlns="http://www.w3.org/2000/svg"><path fill-rule="evenodd" clip-rule="evenodd" d="M2.993 13.646l1.35.334 1.017-1.595-1.932-.48a.897.897 0 10-.435 1.74zm17.615.258l-4.419 3.978-5.195-4.021a.892.892 0 00-.335-.162l-.691-.171-1.017 1.595 1.089.27 5.642 4.365a.899.899 0 00.552.188.898.898 0 00.604-.231l4.978-4.481a.894.894 0 00.064-1.266.904.904 0 00-1.272-.064zm-9.7-4.368l4.839 3.098a.904.904 0 001.228-.245l4.978-7.17a.893.893 0 00-.229-1.247.901.901 0 00-1.252.228l-4.483 6.457-4.868-3.116a.906.906 0 00-1.247.274L2.452 19.467a.892.892 0 00.277 1.237.901.901 0 001.242-.276l6.937-10.892z" /></symbol><symbol  viewBox="0 0 24 24" id="lock" xmlns="http://www.w3.org/2000/svg"><path d="M18 8h-1V6c0-2.76-2.24-5-5-5S7 3.24 7 6v2H6c-1.1 0-2 .9-2 2v10c0 1.1.9 2 2 2h12c1.1 0 2-.9 2-2V10c0-1.1-.9-2-2-2zm-6 9c-1.1 0-2-.9-2-2s.9-2 2-2 2 .9 2 2-.9 2-2 2zm3.1-9H8.9V6c0-1.71 1.39-3.1 3.1-3.1 1.71 0 3.1 1.39 3.1 3.1v2z" /></symbol><symbol  viewBox="0 0 20 20" id="logout" xmlns="http://www.w3.org/2000/svg"><path fill-rule="evenodd" clip-rule="evenodd" d="M18 10l-3.504 3.429v-2.11H6.57V8.68h7.925v-2.11L18 10zm-7.411-6.222H3.697v12.444h6.892v-2.666h1.697v2.666c0 .978-.772 1.778-1.715 1.778H3.714C2.771 18 2 17.2 2 16.222V3.778C2 2.8 2.771 2 3.714 2h6.857c.943 0 1.715.8 1.715 1.778v1.778h-1.697V3.778z" /></symbol><symbol  viewBox="0 0 24 24" id="map" xmlns="http://www.w3.org/2000/svg"><path d="M20.5 3l-.16.03L15 5.1 9 3 3.36 4.9c-.21.07-.36.25-.36.48V20.5c0 .28.22.5.5.5l.16-.03L9 18.9l6 2.1 5.64-1.9c.21-.07.36-.25.36-.48V3.5c0-.28-.22-.5-.5-.5zM10 5.47l4 1.4v11.66l-4-1.4V5.47zm-5 .99l3-1.01v11.7l-3 1.16V6.46zm14 11.08l-3 1.01V6.86l3-1.16v11.84z" /></symbol><symbol  viewBox="0 0 24 24" id="more_horiz" xmlns="http://www.w3.org/2000/svg"><path d="M6 10c-1.1 0-2 .9-2 2s.9 2 2 2 2-.9 2-2-.9-2-2-2zm12 0c-1.1 0-2 .9-2 2s.9 2 2 2 2-.9 2-2-.9-2-2-2zm-6 0c-1.1 0-2 .9-2 2s.9 2 2 2 2-.9 2-2-.9-2-2-2z" /></symbol><symbol  viewBox="0 0 24 24" id="more_vert" xmlns="http://www.w3.org/2000/svg"><path d="M12 8c1.1 0 2-.9 2-2s-.9-2-2-2-2 .9-2 2 .9 2 2 2zm0 2c-1.1 0-2 .9-2 2s.9 2 2 2 2-.9 2-2-.9-2-2-2zm0 6c-1.1 0-2 .9-2 2s.9 2 2 2 2-.9 2-2-.9-2-2-2z" /></symbol><symbol  viewBox="0 0 24 24" id="notifications" xmlns="http://www.w3.org/2000/svg"><path d="M12 22c1.1 0 2-.9 2-2h-4a2 2 0 002 2zm6-6v-5c0-3.07-1.64-5.64-4.5-6.32V4c0-.83-.67-1.5-1.5-1.5s-1.5.67-1.5 1.5v.68C7.63 5.36 6 7.92 6 11v5l-2 2v1h16v-1l-2-2z" /></symbol><symbol  viewBox="0 0 24 24" id="open" xmlns="http://www.w3.org/2000/svg"><path d="M19 19H5V5h7V3H5a2 2 0 00-2 2v14a2 2 0 002 2h14c1.1 0 2-.9 2-2v-7h-2v7zM14 3v2h3.59l-9.83 9.83 1.41 1.41L19 6.41V10h2V3h-7z" /></symbol><symbol  viewBox="0 0 24 24" id="pie-chart" xmlns="http://www.w3.org/2000/svg"><path d="M11 2v20c-5.07-.5-9-4.79-9-10s3.93-9.5 9-10zm2.03 0v8.99H22c-.47-4.74-4.24-8.52-8.97-8.99zm0 11.01V22c4.74-.47 8.5-4.25 8.97-8.99h-8.97z" /></symbol><symbol  viewBox="0 0 24 24" id="query_builder" xmlns="http://www.w3.org/2000/svg"><path d="M11.99 2C6.47 2 2 6.48 2 12s4.47 10 9.99 10C17.52 22 22 17.52 22 12S17.52 2 11.99 2zM12 20c-4.42 0-8-3.58-8-8s3.58-8 8-8 8 3.58 8 8-3.58 8-8 8z" /><path d="M12.5 7H11v6l5.25 3.15.75-1.23-4.5-2.67V7z" /></symbol><symbol  viewBox="0 0 24 24" id="report_problem" xmlns="http://www.w3.org/2000/svg"><path d="M1 21h22L12 2 1 21zm12-3h-2v-2h2v2zm0-4h-2v-4h2v4z" /></symbol><symbol  viewBox="0 0 24 24" id="schedule" xmlns="http://www.w3.org/2000/svg"><path d="M16.5 12.5H15v4l3 2 .75-1.23-2.25-1.52V12.5zM16 9L2 3v7l9 2-9 2v7l7.27-3.11C10.09 20.83 12.79 23 16 23c3.86 0 7-3.14 7-7s-3.14-7-7-7zm0 12c-2.75 0-4.98-2.22-5-4.97v-.07a5.008 5.008 0 015-4.97c2.76 0 5 2.24 5 5S18.76 21 16 21z" /></symbol><symbol  viewBox="0 0 24 24" id="search" xmlns="http://www.w3.org/2000/svg"><path d="M15.5 14h-.79l-.28-.27A6.471 6.471 0 0016 9.5 6.5 6.5 0 109.5 16c1.61 0 3.09-.59 4.23-1.57l.27.28v.79l5 4.99L20.49 19l-4.99-5zm-6 0C7.01 14 5 11.99 5 9.5S7.01 5 9.5 5 14 7.01 14 9.5 11.99 14 9.5 14z" /></symbol><symbol  viewBox="0 0 20 20" id="settings" xmlns="http://www.w3.org/2000/svg"><path fill-rule="evenodd" clip-rule="evenodd" d="M16.285 9.912c0-1.037.638-1.855 1.6-2.418a8.761 8.761 0 00-.685-1.656c-1.078.282-1.951-.14-2.684-.874-.733-.734-.958-1.606-.676-2.685a8.761 8.761 0 00-1.656-.685c-.563.961-1.579 1.6-2.616 1.6-1.037 0-2.054-.638-2.617-1.6a8.687 8.687 0 00-1.655.685c.282 1.078.058 1.951-.676 2.685-.734.734-1.606 1.156-2.684.874a8.66 8.66 0 00-.685 1.655c.961.562 1.6 1.381 1.6 2.418 0 1.037-.638 2.054-1.6 2.617.173.58.402 1.133.685 1.656 1.078-.282 1.951-.058 2.684.676.733.734.958 1.606.676 2.684a8.734 8.734 0 001.656.685c.563-.962 1.579-1.6 2.616-1.6 1.037 0 2.053.638 2.616 1.6a8.7 8.7 0 001.656-.686c-.282-1.078-.058-1.95.676-2.684.734-.734 1.606-1.156 2.684-.874a8.761 8.761 0 00.685-1.656c-.962-.56-1.6-1.38-1.6-2.417zM9.568 13.53a3.616 3.616 0 11-.001-7.233 3.616 3.616 0 01.001 7.233z" /><mask id="bya" style="mask-type:alpha" maskUnits="userSpaceOnUse" x="1" y="1" width="17" height="18"><path fill-rule="evenodd" clip-rule="evenodd" d="M16.285 9.912c0-1.037.638-1.855 1.6-2.418a8.761 8.761 0 00-.685-1.656c-1.078.282-1.951-.14-2.684-.874-.733-.734-.958-1.606-.676-2.685a8.761 8.761 0 00-1.656-.685c-.563.961-1.579 1.6-2.616 1.6-1.037 0-2.054-.638-2.617-1.6a8.687 8.687 0 00-1.655.685c.282 1.078.058 1.951-.676 2.685-.734.734-1.606 1.156-2.684.874a8.66 8.66 0 00-.685 1.655c.961.562 1.6 1.381 1.6 2.418 0 1.037-.638 2.054-1.6 2.617.173.58.402 1.133.685 1.656 1.078-.282 1.951-.058 2.684.676.733.734.958 1.606.676 2.684a8.734 8.734 0 001.656.685c.563-.962 1.579-1.6 2.616-1.6 1.037 0 2.053.638 2.616 1.6a8.7 8.7 0 001.656-.686c-.282-1.078-.058-1.95.676-2.684.734-.734 1.606-1.156 2.684-.874a8.761 8.761 0 00.685-1.656c-.962-.56-1.6-1.38-1.6-2.417zM9.568 13.53a3.616 3.616 0 11-.001-7.233 3.616 3.616 0 01.001 7.233z" /></mask></symbol><symbol  viewBox="0 0 24 24" id="star" xmlns="http://www.w3.org/2000/svg"><path d="M12 17.27L18.18 21l-1.64-7.03L22 9.24l-7.19-.61L12 2 9.19 8.63 2 9.24l5.46 4.73L5.82 21 12 17.27z" /></symbol><symbol  viewBox="0 0 24 24" id="success" xmlns="http://www.w3.org/2000/svg"><path fill-rule="evenodd" clip-rule="evenodd" d="M15.452 8l-4.818 4.87-2.087-2.11L7 12.325 10.634 16 17 9.564 15.452 8z" /><path fill-rule="evenodd" clip-rule="evenodd" d="M12 21a9 9 0 100-18 9 9 0 000 18zm0 2c6.075 0 11-4.925 11-11S18.075 1 12 1 1 5.925 1 12s4.925 11 11 11z" /></symbol><symbol  viewBox="0 0 24 24" id="sync" xmlns="http://www.w3.org/2000/svg"><path d="M12 4V1L8 5l4 4V6c3.31 0 6 2.69 6 6 0 1.01-.25 1.97-.7 2.8l1.46 1.46A7.93 7.93 0 0020 12c0-4.42-3.58-8-8-8zm0 14c-3.31 0-6-2.69-6-6 0-1.01.25-1.97.7-2.8L5.24 7.74A7.93 7.93 0 004 12c0 4.42 3.58 8 8 8v3l4-4-4-4v3z" /></symbol><symbol  viewBox="0 0 24 24" id="table-chart" xmlns="http://www.w3.org/2000/svg"><path d="M10 10.02h5V21h-5V10.02zM17 21h3c1.1 0 2-.9 2-2v-9h-5v11zm3-18H5c-1.1 0-2 .9-2 2v3h19V5c0-1.1-.9-2-2-2zM3 19c0 1.1.9 2 2 2h3V10H3v9z" /></symbol><symbol  viewBox="0 0 24 24" id="trash" xmlns="http://www.w3.org/2000/svg"><path fill-rule="evenodd" clip-rule="evenodd" d="M5.248 9.677l1.091 9.612c.06.457 2.264 1.957 5.456 1.96 3.191-.003 5.396-1.503 5.455-1.96l1.091-9.612c-1.667.933-4.159 1.374-6.546 1.374-2.388 0-4.88-.442-6.547-1.374zm9.682-5.941l-.851-.943c-.328-.467-.684-.554-1.378-.554h-1.813c-.693 0-1.05.087-1.378.554l-.851.943c-2.545.444-4.39 1.623-4.39 2.492v.169c0 1.53 3.369 2.772 7.525 2.772 4.155 0 7.524-1.241 7.524-2.772v-.17c.001-.868-1.843-2.046-4.388-2.491zM13.844 5.94l-1.24-1.326h-1.618L9.747 5.94H8.063s1.845-2.198 2.091-2.496c.188-.23.38-.314.63-.314h2.022c.25 0 .441.086.631.314.245.298 2.09 2.496 2.09 2.496h-1.683z" /></symbol><symbol  viewBox="0 0 20 20" id="user" xmlns="http://www.w3.org/2000/svg"><path fill-rule="evenodd" clip-rule="evenodd" d="M14.528 13.954c-2.098-.799-2.769-1.472-2.769-2.915 0-.865.641-.582.922-2.169.117-.657.683-.01.791-1.512 0-.598-.308-.747-.308-.747s.157-.885.218-1.568C13.458 4.194 12.912 2 10 2S6.543 4.194 6.618 5.043c.062.682.219 1.568.219 1.568s-.309.149-.309.747c.108 1.501.674.854.79 1.512.283 1.587.922 1.304.922 2.17 0 1.44-.67 2.115-2.768 2.914C3.367 14.754 2 15.572 2 16.128V18h16v-1.872c0-.556-1.367-1.373-3.472-2.174z" /></symbol><symbol  viewBox="0 0 21 20" id="users" xmlns="http://www.w3.org/2000/svg"><path fill-rule="evenodd" clip-rule="evenodd" d="M20.32 18.813s-.039-3.75-.269-4.138c-.341-.579-1.134-.977-2.607-1.593-1.469-.614-1.938-1.132-1.938-2.24 0-.667.448-.449.646-1.668.082-.506.478-.008.554-1.163 0-.46-.216-.575-.216-.575s.109-.68.152-1.205c.054-.653-.329-2.339-2.367-2.339-2.039 0-2.421 1.687-2.367 2.34.043.523.152 1.204.152 1.204s-.216.115-.216.575c.076 1.154.471.656.553 1.163.197 1.22.646 1.001.646 1.667 0 .754-.219 1.235-.819 1.66 3.208 1.605 3.639 1.932 3.639 3.368v2.943h4.457v.001zm-9.679-5.172c-1.959-.818-2.585-1.509-2.585-2.987 0-.888.599-.598.86-2.224.109-.674.638-.01.738-1.55 0-.614-.288-.767-.288-.767s.146-.907.204-1.606c.071-.87-.438-3.12-3.156-3.12-2.719 0-3.229 2.25-3.157 3.12.058.7.204 1.606.204 1.606s-.288.153-.288.767c.101 1.54.629.876.738 1.55.263 1.626.86 1.336.86 2.224 0 1.478-.626 2.17-2.584 2.987-.598.25-1.67.636-1.67 1.565v3.607h13.757v-2.705c0-.847-1.67-1.646-3.633-2.467z" /><mask id="cfa" style="mask-type:alpha" maskUnits="userSpaceOnUse" x="0" y="1" width="21" height="18"><path fill-rule="evenodd" clip-rule="evenodd" d="M20.32 18.813s-.039-3.75-.269-4.138c-.341-.579-1.134-.977-2.607-1.593-1.469-.614-1.938-1.132-1.938-2.24 0-.667.448-.449.646-1.668.082-.506.478-.008.554-1.163 0-.46-.216-.575-.216-.575s.109-.68.152-1.205c.054-.653-.329-2.339-2.367-2.339-2.039 0-2.421 1.687-2.367 2.34.043.523.152 1.204.152 1.204s-.216.115-.216.575c.076 1.154.471.656.553 1.163.197 1.22.646 1.001.646 1.667 0 .754-.219 1.235-.819 1.66 3.208 1.605 3.639 1.932 3.639 3.368v2.943h4.457v.001zm-9.679-5.172c-1.959-.818-2.585-1.509-2.585-2.987 0-.888.599-.598.86-2.224.109-.674.638-.01.738-1.55 0-.614-.288-.767-.288-.767s.146-.907.204-1.606c.071-.87-.438-3.12-3.156-3.12-2.719 0-3.229 2.25-3.157 3.12.058.7.204 1.606.204 1.606s-.288.153-.288.767c.101 1.54.629.876.738 1.55.263 1.626.86 1.336.86 2.224 0 1.478-.626 2.17-2.584 2.987-.598.25-1.67.636-1.67 1.565v3.607h13.757v-2.705c0-.847-1.67-1.646-3.633-2.467z" /></mask></symbol></svg>