<svg width="25" height="24" viewBox="0 0 25 24" fill="none" xmlns="http://www.w3.org/2000/svg">
<path d="M19.5 19H5.5V5H11.5V3H5.5C4.4 3 3.5 3.9 3.5 5V19C3.5 20.1 4.4 21 5.5 21H19.5C20.6 21 21.5 20.1 21.5 19V13H19.5V19ZM15.5 13V17H17.5V13H15.5ZM11.5 17H13.5V9H11.5V17ZM9.5 17V12H7.5V17H9.5Z" fill="#9FA0A8"/>
<path d="M20.8886 2L18.5 4.38857L18.1571 4.04571L16.1114 2L14.5 3.61143L16.5457 5.65714L16.8886 6L14.5 8.38857L16.1114 10L18.5 7.62286L20.8886 10L22.5 8.38857L20.1229 6L22.5 3.61143L20.8886 2Z" fill="#9FA0A8"/>
</svg>
