<svg width="20" height="20" viewBox="0 0 20 20" fill="none" xmlns="http://www.w3.org/2000/svg">
<path fill-rule="evenodd" clip-rule="evenodd" d="M17.0019 5.10279L8.09291 0.510788C6.87191 -0.132212 4.46591 1.10979 3.77491 2.20279C3.46591 2.69079 3.48891 3.04379 3.48891 3.24379L3.59891 13.6148C3.60591 13.8348 3.88291 14.1318 4.12091 14.2778C4.61491 14.5818 12.0999 19.2548 12.3119 19.3868C12.4259 19.4578 12.5609 19.4908 12.6939 19.4908C12.8069 19.4908 12.9219 19.4658 13.0239 19.4148C13.2499 19.3048 13.3889 19.0898 13.3889 18.8558V7.96279C13.3889 7.73579 13.2559 7.52579 13.0409 7.41279L4.94191 2.89179C5.03391 2.71379 5.39391 2.33679 6.05591 1.99079C6.75391 1.62579 7.27591 1.76279 7.39591 1.80979C7.39591 1.80979 15.1679 5.96879 15.4059 6.09279C15.6439 6.21679 15.6469 6.23479 15.6469 6.44679C15.6469 6.65879 15.6469 16.7828 15.6469 16.7828C15.6469 17.2988 16.1709 17.5098 16.5549 17.5098C16.9389 17.5098 17.3479 17.1338 17.3479 16.7828V5.65279C17.3499 5.42579 17.2169 5.21579 17.0019 5.10279Z" fill="#111111"/>
<mask id="mask0" style="mask-type:alpha" maskUnits="userSpaceOnUse" x="3" y="0" width="15" height="20">
<path fill-rule="evenodd" clip-rule="evenodd" d="M17.0019 5.10279L8.09291 0.510788C6.87191 -0.132212 4.46591 1.10979 3.77491 2.20279C3.46591 2.69079 3.48891 3.04379 3.48891 3.24379L3.59891 13.6148C3.60591 13.8348 3.88291 14.1318 4.12091 14.2778C4.61491 14.5818 12.0999 19.2548 12.3119 19.3868C12.4259 19.4578 12.5609 19.4908 12.6939 19.4908C12.8069 19.4908 12.9219 19.4658 13.0239 19.4148C13.2499 19.3048 13.3889 19.0898 13.3889 18.8558V7.96279C13.3889 7.73579 13.2559 7.52579 13.0409 7.41279L4.94191 2.89179C5.03391 2.71379 5.39391 2.33679 6.05591 1.99079C6.75391 1.62579 7.27591 1.76279 7.39591 1.80979C7.39591 1.80979 15.1679 5.96879 15.4059 6.09279C15.6439 6.21679 15.6469 6.23479 15.6469 6.44679C15.6469 6.65879 15.6469 16.7828 15.6469 16.7828C15.6469 17.2988 16.1709 17.5098 16.5549 17.5098C16.9389 17.5098 17.3479 17.1338 17.3479 16.7828V5.65279C17.3499 5.42579 17.2169 5.21579 17.0019 5.10279Z" fill="white"/>
</mask>
<g mask="url(#mask0)">
</g>
</svg>
