<svg width="20" height="20" viewBox="0 0 20 20" fill="none" xmlns="http://www.w3.org/2000/svg">
<path fill-rule="evenodd" clip-rule="evenodd" d="M17.854 14.701V12.428C17.854 11.055 16.944 9.01204 14.438 9.01204H12.458C11.061 9.01204 10.93 8.32504 10.924 7.97204V5.20304C11.768 4.83904 12.36 4.00004 12.36 3.02104C12.36 1.70904 11.296 0.644043 9.984 0.644043C8.672 0.644043 7.608 1.70804 7.608 3.02104C7.608 4.00004 8.199 4.83804 9.044 5.20304V7.97204C9.044 8.22904 8.97 9.01204 7.509 9.01204H5.529C3.023 9.01204 2.113 11.055 2.113 12.428V14.701C1.269 15.065 0.677002 15.904 0.677002 16.883C0.677002 18.195 1.741 19.259 3.053 19.259C4.365 19.259 5.429 18.196 5.429 16.883C5.429 15.904 4.837 15.066 3.993 14.701V12.428C3.993 12.171 4.067 10.893 5.527 10.893H7.507C8.108 10.893 8.615 10.802 9.042 10.648V14.702C8.198 15.066 7.606 15.905 7.606 16.884C7.606 18.196 8.67 19.26 9.982 19.26C11.294 19.26 12.358 18.197 12.358 16.884C12.358 15.905 11.767 15.067 10.922 14.702V10.648C11.349 10.802 11.856 10.893 12.456 10.893H14.436C15.834 10.893 15.964 12.075 15.971 12.428V14.701C15.127 15.065 14.535 15.904 14.535 16.883C14.535 18.195 15.599 19.259 16.911 19.259C18.223 19.259 19.287 18.196 19.287 16.883C19.29 15.904 18.699 15.065 17.854 14.701ZM4.423 16.883C4.423 17.64 3.809 18.254 3.052 18.254C2.295 18.254 1.681 17.64 1.681 16.883C1.681 16.125 2.295 15.512 3.052 15.512C3.809 15.512 4.423 16.125 4.423 16.883ZM8.612 3.02104C8.612 2.26304 9.226 1.65004 9.983 1.65004C10.74 1.65004 11.354 2.26304 11.354 3.02104C11.354 3.77804 10.74 4.39204 9.983 4.39204C9.226 4.39304 8.612 3.77804 8.612 3.02104ZM11.354 16.883C11.354 17.64 10.74 18.254 9.983 18.254C9.226 18.254 8.612 17.64 8.612 16.883C8.612 16.125 9.226 15.512 9.983 15.512C10.74 15.512 11.354 16.125 11.354 16.883ZM16.914 18.254C16.157 18.254 15.543 17.64 15.543 16.883C15.543 16.125 16.157 15.512 16.914 15.512C17.671 15.512 18.285 16.125 18.285 16.883C18.285 17.64 17.671 18.254 16.914 18.254Z" fill="black"/>
</svg>
