<svg width="21" height="20" viewBox="0 0 21 20" fill="none" xmlns="http://www.w3.org/2000/svg">
<path fill-rule="evenodd" clip-rule="evenodd" d="M6.221 12.486V6.34797H2.459C1.37 6.34797 0.479004 7.23897 0.479004 8.32797V14.268C0.479004 15.357 1.371 16.248 2.459 16.248H3.449V19.218L6.419 16.248H11.37C12.459 16.248 13.35 15.357 13.35 14.268V12.466C13.286 12.479 13.22 12.486 13.152 12.486H6.221ZM18.301 1.39697H9.38999C8.30099 1.39697 7.40999 2.28797 7.40999 3.37697V11.298H14.341L17.312 14.268V11.298H18.302C19.391 11.298 20.282 10.406 20.282 9.31797V3.37797C20.281 2.28897 19.39 1.39697 18.301 1.39697Z" fill="black"/>
</svg>
