<svg width="21" height="20" viewBox="0 0 21 20" fill="none" xmlns="http://www.w3.org/2000/svg">
<path fill-rule="evenodd" clip-rule="evenodd" d="M8.03505 4.04019C7.67205 3.69819 7.18105 3.69819 6.81605 4.04019L0.498047 9.72519L6.81605 15.4092C7.18005 15.7512 7.67105 15.7512 8.03505 15.4092C8.39905 15.0662 8.39905 14.5112 8.03505 14.1692L3.13005 9.72619L8.03505 5.28219C8.39905 4.93819 8.39905 4.38319 8.03505 4.04019ZM13.982 4.04019C13.6181 3.69819 13.1281 3.69819 12.7631 4.04019C12.3991 4.38319 12.4191 4.93819 12.7831 5.28019L17.6691 9.72419L12.7831 14.1672C12.4201 14.5092 12.3991 15.0642 12.7631 15.4072C13.1271 15.7492 13.6171 15.7492 13.982 15.4072L20.3 9.72319L13.982 4.04019Z" fill="black"/>
</svg>
