<svg width="24" height="24" viewBox="0 0 24 24" fill="none" xmlns="http://www.w3.org/2000/svg">
<path d="M20 17.0458V19.0942C20 20.6983 16.276 22 12 22C7.7248 22 4 20.6983 4 19.0942V17.0458C5.9344 18.4942 9.604 18.9258 12 18.9258C14.4048 18.9258 18.0704 18.49 20 17.0458ZM12 14.205C9.5952 14.205 5.9296 13.7692 4 12.325V14.3533C4 15.9583 7.7248 17.2592 12 17.2592C16.276 17.2592 20 15.9575 20 14.3533V12.325C18.0656 13.7733 14.396 14.205 12 14.205ZM12 2C7.7248 2 4 3.30167 4 4.90667C4 6.51167 7.7248 7.8125 12 7.8125C16.276 7.8125 20 6.51083 20 4.90667C20 3.30167 16.276 2 12 2V2ZM12 9.47917C9.5952 9.47917 5.9296 9.04333 4 7.59917V9.6325C4 11.2375 7.7248 12.5383 12 12.5383C16.276 12.5383 20 11.2367 20 9.6325V7.59917C18.0656 9.0475 14.396 9.47917 12 9.47917Z" fill="#2E2D37"/>
</svg>
