<svg width="24" height="24" viewBox="0 0 24 24" fill="none" xmlns="http://www.w3.org/2000/svg">
<path d="M10.8 7.2C10.8 7.86274 10.2628 8.4 9.60002 8.4C8.93728 8.4 8.40002 7.86274 8.40002 7.2C8.40002 6.53726 8.93728 6 9.60002 6C10.2628 6 10.8 6.53726 10.8 7.2Z" fill="black"/>
<path d="M15.6 7.2C15.6 7.86274 15.0628 8.4 14.4 8.4C13.7373 8.4 13.2 7.86274 13.2 7.2C13.2 6.53726 13.7373 6 14.4 6C15.0628 6 15.6 6.53726 15.6 7.2Z" fill="black"/>
<path d="M15.6 12C15.6 12.6627 15.0628 13.2 14.4 13.2C13.7373 13.2 13.2 12.6627 13.2 12C13.2 11.3373 13.7373 10.8 14.4 10.8C15.0628 10.8 15.6 11.3373 15.6 12Z" fill="black"/>
<path d="M15.6 16.8C15.6 17.4627 15.0628 18 14.4 18C13.7373 18 13.2 17.4627 13.2 16.8C13.2 16.1373 13.7373 15.6 14.4 15.6C15.0628 15.6 15.6 16.1373 15.6 16.8Z" fill="black"/>
<path d="M10.8 12C10.8 12.6627 10.2628 13.2 9.60002 13.2C8.93728 13.2 8.40002 12.6627 8.40002 12C8.40002 11.3373 8.93728 10.8 9.60002 10.8C10.2628 10.8 10.8 11.3373 10.8 12Z" fill="black"/>
<path d="M10.8 16.8C10.8 17.4627 10.2628 18 9.60002 18C8.93728 18 8.40002 17.4627 8.40002 16.8C8.40002 16.1373 8.93728 15.6 9.60002 15.6C10.2628 15.6 10.8 16.1373 10.8 16.8Z" fill="black"/>
</svg>
