<svg width="20" height="20" viewBox="0 0 20 20" fill="none" xmlns="http://www.w3.org/2000/svg">
<path fill-rule="evenodd" clip-rule="evenodd" d="M9.65406 0.408051C4.62406 0.475051 0.601061 4.60705 0.668061 9.63705C0.735061 14.668 4.86806 18.691 9.89706 18.623C14.9281 18.557 18.9511 14.4241 18.8841 9.39405C18.8161 4.36405 14.6841 0.341051 9.65406 0.408051ZM9.67006 1.59605C11.0261 1.57805 12.3081 1.90205 13.4321 2.48905L12.2061 4.53205C11.4721 4.17405 10.6471 3.97105 9.77506 3.97105C8.90306 3.97105 8.07906 4.17305 7.34406 4.53205L6.11906 2.49005C7.18306 1.93605 8.38806 1.61305 9.67006 1.59605ZM4.79206 11.9471L2.75006 13.1721C2.19606 12.1091 1.87306 10.9031 1.85606 9.62207C1.83806 8.26607 2.16306 6.98407 2.74906 5.86007L4.79206 7.08607C4.43406 7.82007 4.23106 8.64507 4.23106 9.51707C4.23106 10.3881 4.43306 11.2131 4.79206 11.9471ZM9.88206 17.4371C8.52506 17.4551 7.24406 17.1301 6.11906 16.5441L7.34506 14.5011C8.07906 14.8591 8.90306 15.0621 9.77506 15.0621C10.6471 15.0621 11.4711 14.8601 12.2051 14.5011L13.4301 16.5431C12.3681 17.0971 11.1631 17.4191 9.88206 17.4371ZM9.77507 13.873C7.36907 13.873 5.41907 11.922 5.41907 9.51703C5.41907 7.11103 7.37007 5.16103 9.77507 5.16103C12.1811 5.16103 14.1311 7.11103 14.1311 9.51703C14.1321 11.922 12.1821 13.873 9.77507 13.873ZM14.7601 11.9471C15.1181 11.2131 15.3211 10.3881 15.3211 9.51607C15.3211 8.64407 15.1191 7.81907 14.7601 7.08507L16.8021 5.86007C17.3561 6.92307 17.6791 8.12807 17.6961 9.40907C17.7141 10.7661 17.3891 12.0471 16.8031 13.1721L14.7601 11.9471Z" fill="black"/>
</svg>
