<svg width="24" height="24" viewBox="0 0 24 24" fill="none" xmlns="http://www.w3.org/2000/svg">
<path fill-rule="evenodd" clip-rule="evenodd" d="M11.8661 2.00091C6.34395 2.07446 1.92735 6.61182 2.00091 12.135C2.07446 17.655 6.61182 22.0727 12.1339 22.0002C17.655 21.9255 22.0727 17.3882 21.9991 11.8661C21.9255 6.34505 17.3893 1.92735 11.8661 2.00091ZM12.9749 5.33286C13.9926 5.33286 14.2923 5.9235 14.2923 6.59757C14.2923 7.44071 13.6172 8.22017 12.4666 8.22017C11.5038 8.22017 11.0449 7.73493 11.0713 6.93461C11.0724 6.26053 11.6367 5.33286 12.9749 5.33286ZM10.3685 18.2501C9.6747 18.2501 9.16531 17.8285 9.65165 15.9743L10.4498 12.6862C10.5881 12.1593 10.6112 11.9485 10.4498 11.9485C10.2412 11.9485 9.33877 12.313 8.80632 12.6709L8.4594 12.1022C10.1501 10.6904 12.0921 9.86261 12.9254 9.86261C13.6203 9.86261 13.7356 10.6849 13.3887 11.9485L12.4764 15.4056C12.315 16.016 12.3842 16.2268 12.5444 16.2268C12.753 16.2268 13.4359 15.9732 14.1078 15.4462L14.5008 15.9732C12.8573 17.6166 11.0635 18.2501 10.3685 18.2501Z" fill="black"/>
</svg>
