<svg width="24" height="24" viewBox="0 0 24 24" fill="none" xmlns="http://www.w3.org/2000/svg">
<path fill-rule="evenodd" clip-rule="evenodd" d="M2.993 13.6459L4.343 13.9799L5.36 12.3849L3.428 11.9059C2.945 11.7849 2.457 12.0789 2.337 12.5589C2.217 13.0399 2.511 13.5259 2.993 13.6459ZM20.608 13.9039L16.189 17.8819L10.994 13.8609C10.895 13.7839 10.781 13.7289 10.659 13.6989L9.968 13.5279L8.951 15.1229L10.04 15.3929L15.682 19.7579C15.845 19.8839 16.039 19.9459 16.234 19.9459C16.451 19.9459 16.668 19.8689 16.838 19.7149L21.816 15.2339C22.185 14.9019 22.213 14.3349 21.88 13.9679C21.547 13.6009 20.978 13.5719 20.608 13.9039ZM10.908 9.53592L15.747 12.6339C16.155 12.8949 16.698 12.7869 16.975 12.3889L21.953 5.21892C22.236 4.81192 22.134 4.25292 21.724 3.97192C21.315 3.68992 20.754 3.79192 20.472 4.19992L15.989 10.6569L11.121 7.54092C10.919 7.41192 10.675 7.36892 10.44 7.41992C10.206 7.47092 10.002 7.61292 9.874 7.81492L2.452 19.4669C2.184 19.8849 2.309 20.4389 2.729 20.7039C2.878 20.7989 3.045 20.8439 3.21 20.8439C3.508 20.8439 3.799 20.6969 3.971 20.4279L10.908 9.53592Z" fill="#111111"/>
</svg>
