<svg width="20" height="20" viewBox="0 0 20 20" fill="none" xmlns="http://www.w3.org/2000/svg">
<path fill-rule="evenodd" clip-rule="evenodd" d="M16.285 9.91224C16.285 8.87524 16.923 8.05724 17.885 7.49424C17.712 6.91524 17.482 6.36024 17.2 5.83824C16.122 6.12024 15.249 5.69824 14.516 4.96424C13.783 4.23024 13.558 3.35824 13.84 2.27924C13.318 1.99724 12.763 1.76724 12.184 1.59424C11.621 2.55524 10.605 3.19424 9.56798 3.19424C8.53098 3.19424 7.51398 2.55624 6.95098 1.59424C6.37198 1.76724 5.81798 1.99624 5.29598 2.27924C5.57798 3.35724 5.35398 4.23024 4.61998 4.96424C3.88598 5.69824 3.01398 6.12024 1.93598 5.83824C1.65298 6.35924 1.42398 6.91424 1.25098 7.49324C2.21198 8.05524 2.85098 8.87424 2.85098 9.91124C2.85098 10.9482 2.21298 11.9652 1.25098 12.5282C1.42398 13.1072 1.65298 13.6612 1.93598 14.1842C3.01398 13.9022 3.88698 14.1262 4.61998 14.8602C5.35298 15.5942 5.57798 16.4662 5.29598 17.5442C5.81798 17.8262 6.37198 18.0562 6.95198 18.2292C7.51498 17.2672 8.53098 16.6292 9.56798 16.6292C10.605 16.6292 11.621 17.2672 12.184 18.2292C12.763 18.0562 13.318 17.8262 13.84 17.5432C13.558 16.4652 13.782 15.5932 14.516 14.8592C15.25 14.1252 16.122 13.7032 17.2 13.9852C17.482 13.4632 17.712 12.9082 17.885 12.3292C16.923 11.7682 16.285 10.9492 16.285 9.91224ZM9.56798 13.5292C7.56998 13.5292 5.95098 11.9102 5.95098 9.91224C5.95098 7.91524 7.56998 6.29524 9.56798 6.29524C11.566 6.29524 13.185 7.91524 13.185 9.91224C13.185 11.9102 11.565 13.5292 9.56798 13.5292Z" fill="#111111"/>
<mask id="mask0" style="mask-type:alpha" maskUnits="userSpaceOnUse" x="1" y="1" width="17" height="18">
<path fill-rule="evenodd" clip-rule="evenodd" d="M16.285 9.91224C16.285 8.87524 16.923 8.05724 17.885 7.49424C17.712 6.91524 17.482 6.36024 17.2 5.83824C16.122 6.12024 15.249 5.69824 14.516 4.96424C13.783 4.23024 13.558 3.35824 13.84 2.27924C13.318 1.99724 12.763 1.76724 12.184 1.59424C11.621 2.55524 10.605 3.19424 9.56798 3.19424C8.53098 3.19424 7.51398 2.55624 6.95098 1.59424C6.37198 1.76724 5.81798 1.99624 5.29598 2.27924C5.57798 3.35724 5.35398 4.23024 4.61998 4.96424C3.88598 5.69824 3.01398 6.12024 1.93598 5.83824C1.65298 6.35924 1.42398 6.91424 1.25098 7.49324C2.21198 8.05524 2.85098 8.87424 2.85098 9.91124C2.85098 10.9482 2.21298 11.9652 1.25098 12.5282C1.42398 13.1072 1.65298 13.6612 1.93598 14.1842C3.01398 13.9022 3.88698 14.1262 4.61998 14.8602C5.35298 15.5942 5.57798 16.4662 5.29598 17.5442C5.81798 17.8262 6.37198 18.0562 6.95198 18.2292C7.51498 17.2672 8.53098 16.6292 9.56798 16.6292C10.605 16.6292 11.621 17.2672 12.184 18.2292C12.763 18.0562 13.318 17.8262 13.84 17.5432C13.558 16.4652 13.782 15.5932 14.516 14.8592C15.25 14.1252 16.122 13.7032 17.2 13.9852C17.482 13.4632 17.712 12.9082 17.885 12.3292C16.923 11.7682 16.285 10.9492 16.285 9.91224ZM9.56798 13.5292C7.56998 13.5292 5.95098 11.9102 5.95098 9.91224C5.95098 7.91524 7.56998 6.29524 9.56798 6.29524C11.566 6.29524 13.185 7.91524 13.185 9.91224C13.185 11.9102 11.565 13.5292 9.56798 13.5292Z" fill="white"/>
</mask>
<g mask="url(#mask0)">
</g>
</svg>
