<svg width="24" height="24" viewBox="0 0 24 24" fill="none" xmlns="http://www.w3.org/2000/svg">
<path fill-rule="evenodd" clip-rule="evenodd" d="M5.24804 9.67677L6.33904 19.2888C6.39904 19.7458 8.60304 21.2458 11.795 21.2488C14.986 21.2458 17.191 19.7458 17.25 19.2888L18.341 9.67677C16.674 10.6098 14.182 11.0508 11.795 11.0508C9.40704 11.0508 6.91504 10.6088 5.24804 9.67677ZM14.93 3.73577L14.079 2.79277C13.751 2.32577 13.395 2.23877 12.701 2.23877H10.888C10.195 2.23877 9.83804 2.32577 9.51004 2.79277L8.65904 3.73577C6.11404 4.17977 4.26904 5.35877 4.26904 6.22777V6.39677C4.26904 7.92777 7.63804 9.16877 11.794 9.16877C15.949 9.16877 19.318 7.92777 19.318 6.39677V6.22777C19.319 5.35877 17.475 4.18077 14.93 3.73577ZM13.844 5.94077L12.604 4.61477H10.986L9.74704 5.94077H8.06304C8.06304 5.94077 9.90804 3.74277 10.154 3.44477C10.342 3.21577 10.534 3.13077 10.784 3.13077H12.806C13.056 3.13077 13.247 3.21677 13.437 3.44477C13.682 3.74277 15.527 5.94077 15.527 5.94077H13.844Z" fill="#111111"/>
</svg>
