<svg width="21" height="20" viewBox="0 0 21 20" fill="none" xmlns="http://www.w3.org/2000/svg">
<path fill-rule="evenodd" clip-rule="evenodd" d="M20.32 18.8132C20.32 18.8132 20.281 15.0632 20.051 14.6752C19.71 14.0962 18.917 13.6982 17.444 13.0822C15.975 12.4682 15.506 11.9502 15.506 10.8412C15.506 10.1752 15.954 10.3932 16.152 9.17421C16.234 8.66821 16.63 9.16621 16.706 8.01121C16.706 7.55121 16.49 7.43621 16.49 7.43621C16.49 7.43621 16.599 6.75521 16.642 6.23121C16.696 5.57821 16.313 3.89221 14.275 3.89221C12.236 3.89221 11.854 5.57921 11.908 6.23121C11.951 6.75521 12.06 7.43621 12.06 7.43621C12.06 7.43621 11.844 7.55121 11.844 8.01121C11.92 9.16521 12.315 8.66721 12.397 9.17421C12.594 10.3932 13.043 10.1752 13.043 10.8412C13.043 11.5952 12.824 12.0762 12.224 12.5002C15.432 14.1062 15.863 14.4332 15.863 15.8692V18.8122H20.32V18.8132ZM10.641 13.6412C8.68197 12.8232 8.05597 12.1322 8.05597 10.6542C8.05597 9.76621 8.65497 10.0562 8.91597 8.43021C9.02497 7.75621 9.55397 8.41921 9.65397 6.88021C9.65397 6.26621 9.36597 6.11321 9.36597 6.11321C9.36597 6.11321 9.51197 5.20621 9.56997 4.50721C9.64097 3.63621 9.13197 1.38721 6.41397 1.38721C3.69497 1.38721 3.18497 3.63621 3.25697 4.50721C3.31497 5.20621 3.46097 6.11321 3.46097 6.11321C3.46097 6.11321 3.17297 6.26621 3.17297 6.88021C3.27397 8.41921 3.80197 7.75621 3.91097 8.43021C4.17397 10.0562 4.77097 9.76621 4.77097 10.6542C4.77097 12.1322 4.14497 12.8232 2.18697 13.6412C1.58897 13.8902 0.516968 14.2772 0.516968 15.2062V18.8132H14.274C14.274 18.8132 14.274 16.6792 14.274 16.1082C14.274 15.2612 12.604 14.4622 10.641 13.6412Z" fill="#111111"/>
<mask id="mask0" style="mask-type:alpha" maskUnits="userSpaceOnUse" x="0" y="1" width="21" height="18">
<path fill-rule="evenodd" clip-rule="evenodd" d="M20.32 18.8132C20.32 18.8132 20.281 15.0632 20.051 14.6752C19.71 14.0962 18.917 13.6982 17.444 13.0822C15.975 12.4682 15.506 11.9502 15.506 10.8412C15.506 10.1752 15.954 10.3932 16.152 9.17421C16.234 8.66821 16.63 9.16621 16.706 8.01121C16.706 7.55121 16.49 7.43621 16.49 7.43621C16.49 7.43621 16.599 6.75521 16.642 6.23121C16.696 5.57821 16.313 3.89221 14.275 3.89221C12.236 3.89221 11.854 5.57921 11.908 6.23121C11.951 6.75521 12.06 7.43621 12.06 7.43621C12.06 7.43621 11.844 7.55121 11.844 8.01121C11.92 9.16521 12.315 8.66721 12.397 9.17421C12.594 10.3932 13.043 10.1752 13.043 10.8412C13.043 11.5952 12.824 12.0762 12.224 12.5002C15.432 14.1062 15.863 14.4332 15.863 15.8692V18.8122H20.32V18.8132ZM10.641 13.6412C8.68197 12.8232 8.05597 12.1322 8.05597 10.6542C8.05597 9.76621 8.65497 10.0562 8.91597 8.43021C9.02497 7.75621 9.55397 8.41921 9.65397 6.88021C9.65397 6.26621 9.36597 6.11321 9.36597 6.11321C9.36597 6.11321 9.51197 5.20621 9.56997 4.50721C9.64097 3.63621 9.13197 1.38721 6.41397 1.38721C3.69497 1.38721 3.18497 3.63621 3.25697 4.50721C3.31497 5.20621 3.46097 6.11321 3.46097 6.11321C3.46097 6.11321 3.17297 6.26621 3.17297 6.88021C3.27397 8.41921 3.80197 7.75621 3.91097 8.43021C4.17397 10.0562 4.77097 9.76621 4.77097 10.6542C4.77097 12.1322 4.14497 12.8232 2.18697 13.6412C1.58897 13.8902 0.516968 14.2772 0.516968 15.2062V18.8132H14.274C14.274 18.8132 14.274 16.6792 14.274 16.1082C14.274 15.2612 12.604 14.4622 10.641 13.6412Z" fill="white"/>
</mask>
<g mask="url(#mask0)">
</g>
</svg>
