<svg width="20" height="20" viewBox="0 0 20 20" fill="none" xmlns="http://www.w3.org/2000/svg">
<path fill-rule="evenodd" clip-rule="evenodd" d="M14.5284 13.954C12.4303 13.155 11.759 12.4817 11.759 11.0391C11.759 10.1737 12.4002 10.4565 12.6813 8.87022C12.7982 8.2131 13.3637 8.85945 13.472 7.35757C13.472 6.75969 13.1635 6.61067 13.1635 6.61067C13.1635 6.61067 13.3208 5.72552 13.3818 5.04326C13.4583 4.19402 12.9125 2 10.0004 2C7.08837 2 6.54257 4.19402 6.61821 5.04326C6.6801 5.72463 6.83653 6.61067 6.83653 6.61067C6.83653 6.61067 6.52796 6.75969 6.52796 7.35757C6.63626 8.85945 7.20183 8.2122 7.31872 8.87022C7.60065 10.4565 8.24013 10.1737 8.24013 11.0391C8.24013 12.4808 7.57056 13.155 5.47247 13.954C3.3675 14.7548 2 15.5717 2 16.1283C2 16.6848 2 18 2 18H10.0004H18C18 18 18 16.6848 18 16.1283C18 15.5717 16.6325 14.7548 14.5284 13.954Z" fill="black"/>
</svg>
